<svg width="900" height="900" viewBox="0 0 900 900" fill="none" xmlns="http://www.w3.org/2000/svg">
<rect width="900" height="900" fill="transparent"/>
<path d="M452.13 656.163C442.892 656.163 433.925 656.163 424.958 656.163C422.784 656.163 422.784 657.522 422.24 658.609C419.251 668.119 415.991 677.63 413.002 687.14C410.556 694.749 405.121 697.738 397.513 695.292C373.329 687.412 349.146 679.532 324.69 671.652C318.169 669.478 315.451 663.772 317.353 657.25C320.342 647.468 323.603 637.686 326.864 628.175C327.679 626.001 327.136 624.914 325.234 623.827C318.169 618.936 311.104 613.774 303.767 608.611C296.974 613.774 289.909 618.936 282.844 624.099C280.942 625.458 279.04 626.817 276.866 628.175C270.888 631.979 264.91 631.164 260.562 625.186C250.237 611.328 240.183 597.47 230.129 583.34C225.509 577.09 221.162 570.841 216.814 564.591C211.38 556.439 211.923 552.091 219.803 546.113C227.14 540.407 235.02 535.244 242.357 529.538C243.172 528.723 244.259 528.179 244.802 527.636C242.085 518.669 239.368 509.974 236.379 501.278C236.107 500.463 234.476 499.92 233.389 499.92C223.607 499.92 213.553 499.92 203.771 499.92C195.348 499.92 191 495.572 191 487.148C191 462.421 191 437.694 191 412.967C191 404.271 195.348 399.924 204.043 399.924C213.825 399.924 223.607 399.924 233.389 399.924C235.02 399.924 236.107 400.196 236.65 398.022C239.096 389.598 241.813 381.175 244.53 372.208C244.259 371.936 243.443 371.121 242.628 370.577C234.476 364.599 226.325 358.621 218.173 352.643C212.195 348.296 211.108 342.046 215.455 336.068C230.401 315.417 245.346 295.037 260.291 274.386C264.638 268.408 270.888 267.592 276.866 271.668C285.833 278.19 294.528 284.439 303.767 290.961C304.582 290.417 305.397 289.874 306.213 289.331C312.462 284.983 318.44 280.092 324.69 276.016C327.136 274.386 327.407 273.027 326.592 270.581C323.875 262.701 321.158 254.55 318.44 246.398C317.897 244.224 317.082 242.322 316.81 240.148C315.995 234.442 317.897 230.366 323.331 228.192C332.842 224.659 342.624 221.399 352.135 218.41C366.536 213.519 381.209 208.899 395.883 204.28C404.85 201.291 410.013 204.008 412.73 212.975C415.719 221.942 418.708 231.181 421.425 240.148C421.969 242.322 423.056 242.865 425.229 242.865C433.109 242.594 440.718 242.594 448.598 242.865C450.772 242.865 451.587 242.322 452.13 240.42C455.119 230.909 458.38 221.127 461.369 211.617C463.815 204.28 469.249 201.563 476.586 204.008C500.77 211.888 524.953 219.768 548.865 227.648C555.659 229.822 558.648 235.529 556.474 242.322C553.485 252.104 550.224 261.614 546.963 271.397C546.148 273.571 546.692 274.657 548.594 275.744C555.659 280.635 562.724 285.798 570.06 290.961C575.766 286.613 581.744 282.266 587.994 277.918C590.711 275.744 593.701 273.842 596.418 271.94C603.211 267.321 608.102 267.864 612.993 274.386C621.96 286.342 630.927 298.841 639.622 310.797C642.068 314.058 644.242 317.319 646.687 320.579C649.676 324.655 649.677 329.546 647.231 333.351C644.785 337.155 640.166 339.329 635.275 337.97C632.829 337.155 630.384 335.253 629.025 333.351C623.319 326.286 618.156 318.677 612.722 311.341C608.917 306.178 605.113 300.743 601.037 295.309C595.874 299.113 591.255 302.917 586.364 306.449C582.288 309.167 578.484 312.156 574.136 314.601C568.973 317.59 565.169 316.775 560.821 312.699C551.583 304.276 541.529 296.667 530.66 290.418C529.029 289.602 527.671 288.515 526.04 287.429C522.508 284.983 520.877 281.45 521.964 277.375C524.682 268.408 527.399 259.441 530.116 250.745C530.66 249.115 531.203 247.485 531.747 245.311C514.084 239.604 496.422 233.898 478.76 227.92C476.314 235.529 473.869 243.137 471.423 250.745C470.608 253.191 469.793 255.636 468.977 258.082C467.075 263.517 462.456 266.234 456.75 265.69C442.892 264.06 429.305 264.06 415.447 265.69C410.828 266.234 407.024 264.603 404.85 260.528C402.676 255.908 400.774 251.289 399.143 246.398C397.241 240.42 395.339 234.442 393.437 227.92C375.775 233.627 358.113 239.333 340.179 245.311C342.896 253.734 345.613 261.886 348.33 270.31C348.874 272.212 349.689 274.114 349.961 276.288C351.319 281.451 349.417 286.07 344.798 288.787C333.114 295.309 322.244 303.46 312.191 312.428C305.941 317.862 302.68 318.134 295.887 313.514C289.094 308.895 282.572 304.004 276.051 299.385C274.692 298.298 273.062 297.211 271.16 295.852C260.291 310.797 249.421 325.742 238.552 340.959C239.368 341.774 240.183 342.318 240.998 342.861C248.606 348.296 256.215 353.73 263.551 359.436C268.714 363.241 269.801 368.132 267.355 373.838C261.921 386.066 257.845 398.565 254.856 411.336C252.954 419.76 250.78 421.662 242.085 421.934C233.389 422.205 224.422 421.934 215.727 421.934C214.64 421.934 213.282 421.934 211.923 421.934C211.923 440.683 211.923 459.161 211.923 477.91C216.542 477.91 220.89 477.91 225.238 477.91C230.944 477.91 236.65 477.91 242.628 478.181C250.508 478.453 252.682 480.899 254.856 488.235C257.845 498.561 260.834 508.615 264.095 518.669C264.91 521.114 266.269 523.56 267.355 526.277C269.801 532.255 268.714 537.146 263.551 540.95C255.4 546.928 246.976 552.907 238.552 559.156C249.421 574.101 260.291 589.046 271.431 604.263C272.518 603.72 273.333 603.176 274.149 602.361C281.485 597.198 288.55 591.492 296.159 586.601C303.495 581.71 306.213 581.981 312.462 587.688C322.516 596.655 333.385 604.535 345.341 611.056C350.232 613.774 352.134 618.936 350.232 624.914C347.515 633.61 344.526 642.305 341.809 651C341.537 652.087 341.265 653.174 340.722 654.533C358.384 660.239 375.775 665.945 393.709 671.923C395.883 665.402 397.785 658.88 399.959 652.359C401.317 648.283 402.948 644.479 404.306 640.403C406.208 636.055 409.469 634.153 414.088 634.425C424.142 634.697 434.468 635.24 444.522 635.24C448.326 635.24 452.402 634.697 456.206 634.153C462.184 633.338 467.075 636.327 468.977 642.033C472.238 651.815 475.227 661.598 478.76 671.652C496.422 665.945 513.813 660.239 531.747 654.533C530.66 651.544 529.844 648.555 528.758 645.566C526.312 637.957 524.138 630.349 521.964 622.469C520.606 617.849 522.508 614.317 526.584 611.6C531.203 608.882 535.823 606.165 540.17 603.176C547.235 598.013 554.028 592.579 560.55 587.144C565.441 583.068 568.702 582.253 574.136 585.514C579.842 588.775 585.005 592.85 590.44 596.655C593.972 599.1 597.233 601.818 600.765 604.263C601.581 603.176 602.396 602.361 602.939 601.274C611.363 589.59 620.058 577.634 628.482 565.949C631.471 561.874 635.547 560.243 640.166 561.602C644.785 562.961 648.046 565.949 648.59 570.841C648.861 573.286 648.046 576.275 646.687 578.449C635.818 593.938 624.677 609.154 613.537 624.371C607.83 632.251 602.939 632.795 595.059 627.088C587.179 621.654 579.299 615.676 571.691 609.969C570.06 608.883 569.245 608.611 567.615 609.969C561.093 614.861 554.844 619.48 548.05 624.099C546.42 625.186 546.148 626.273 546.692 628.175C549.681 636.599 552.398 645.022 555.115 653.446C555.659 655.076 556.202 656.978 556.474 658.88C557.832 664.858 555.659 669.478 549.952 671.38C539.083 675.184 528.214 678.988 517.345 682.521C503.759 686.868 490.172 691.216 476.586 695.564C468.977 698.009 463.543 695.292 460.826 687.412C458.924 676.814 455.391 666.489 452.13 656.163Z" fill="black"/>
<path d="M438.543 603.99C365.448 603.446 299.962 550.459 286.104 478.723C271.974 405.085 314.363 320.034 403.762 299.655C449.14 289.329 491.258 298.568 529.028 326.012C535.822 330.903 536.637 337.968 531.474 343.403C527.398 347.75 521.964 348.022 516.801 344.218C505.388 335.794 493.16 329.273 479.846 324.654C402.675 298.296 320.07 348.294 307.57 428.997C296.429 501.005 345.884 568.665 417.892 579.534C453.488 584.969 486.095 576.817 515.17 555.894C518.159 553.72 521.148 551.818 524.953 552.09C529.3 552.633 533.376 556.166 534.463 560.785C535.55 565.404 534.191 569.209 530.387 571.926C509.464 587.686 486.367 598.012 460.553 601.816C453.216 602.903 445.88 603.446 438.543 603.99Z" fill="black"/>
<path d="M558.103 469.213C558.103 470.572 558.103 471.93 558.103 473.289C558.103 489.049 558.103 504.809 558.103 520.569C558.103 531.167 549.408 537.145 539.626 534.156C533.648 532.254 530.115 527.634 530.115 520.841C530.115 491.223 530.115 461.876 530.115 432.258C530.115 414.596 530.115 396.933 530.115 379.271C530.115 369.761 535.55 364.054 545.06 364.054C563.538 364.054 582.015 363.782 600.493 364.326C610.003 364.598 619.785 365.685 629.024 368.13C645.871 372.206 655.11 384.706 659.458 400.738C662.99 413.78 662.175 427.095 656.74 439.595C649.947 455.083 637.176 462.963 621.416 466.767C607.014 470.3 592.069 469.756 577.396 469.756C571.146 469.213 564.896 469.213 558.103 469.213ZM558.375 443.127C559.19 443.127 560.005 443.399 560.549 443.399C571.69 443.399 582.83 443.671 593.971 443.399C600.493 443.127 607.014 442.584 613.264 441.497C618.97 440.682 624.133 437.964 627.394 433.073C633.915 423.563 633.915 413.237 629.568 402.911C625.492 393.401 617.34 390.412 608.101 390.14C595.873 389.868 583.374 389.868 571.146 389.597C567.07 389.597 562.723 389.597 558.375 389.597C558.375 407.803 558.375 425.193 558.375 443.127Z" fill="black"/>
<path d="M495.877 534.972C489.628 534.972 485.008 531.983 482.834 525.734C477.943 513.234 473.052 500.735 468.433 487.963C467.618 485.518 466.259 484.703 463.814 484.703C444.521 484.703 425.228 484.703 405.935 484.703C403.49 484.703 402.403 485.518 401.588 487.692C397.24 500.463 392.621 512.962 387.73 525.734C384.469 534.429 375.774 537.418 367.894 533.07C361.372 529.538 359.198 523.288 361.916 516.223C366.807 503.452 371.698 490.953 376.317 478.181C389.088 444.759 401.86 411.336 414.903 377.914C418.435 368.947 424.956 364.056 433.923 364.056C443.162 364.056 449.955 368.403 453.488 377.37C472.237 423.021 490.986 468.943 509.464 514.593C513.54 525.19 507.018 534.972 495.877 534.972ZM433.923 396.935C426.043 418.673 418.435 439.868 410.827 461.062C426.859 461.062 442.347 461.062 458.379 461.062C450.227 439.868 442.075 418.945 433.923 396.935Z" fill="black"/>
<path d="M710.001 449.65C710.001 473.29 710.001 496.93 710.001 520.571C710.001 530.896 701.305 537.146 691.251 534.157C685.273 532.255 682.013 527.636 682.013 521.114C682.013 509.158 682.013 497.474 682.013 485.518C682.013 449.922 682.013 414.053 682.013 378.457C682.013 367.86 690.708 361.61 700.762 364.599C706.74 366.501 710.001 371.392 710.001 378.457C710.001 397.75 710.001 416.771 710.001 436.063C710.001 440.683 710.001 445.03 710.001 449.65Z" fill="black"/>
</svg>
