<svg width="900" height="900" viewBox="0 0 900 900" fill="none" xmlns="http://www.w3.org/2000/svg">
<rect width="900" height="900" fill="transparent"/>
<path fill-rule="evenodd" clip-rule="evenodd" d="M714.143 117.264H186.725C137.876 117.264 98.2759 156.724 98.2759 205.4V695.042C98.2759 743.718 137.876 783.178 186.725 783.178H714.143C762.992 783.178 802.592 743.718 802.592 695.042V205.4C802.592 156.724 762.992 117.264 714.143 117.264ZM186.725 114C136.067 114 95 154.921 95 205.4V695.042C95 745.521 136.067 786.442 186.725 786.442H714.143C764.801 786.442 805.867 745.521 805.867 695.042V205.4C805.867 154.921 764.801 114 714.143 114H186.725Z" fill="black"/>
<path d="M315.89 436.201C311.808 436.416 308.37 437.974 305.577 440.874C302.892 443.774 300.958 447.104 299.776 450.864C298.595 454.517 298.004 458.276 298.004 462.144C298.004 466.011 298.541 469.824 299.615 473.584C300.797 477.344 302.784 480.674 305.577 483.574C308.37 486.367 311.808 487.871 315.89 488.086H369.063C375.831 488.73 379.537 492.437 380.182 499.204C380.074 502.212 378.946 504.736 376.798 506.777C374.649 508.711 372.071 509.678 369.063 509.678H317.662H310.25C302.73 509.248 296.554 506.401 291.72 501.138C286.886 495.767 283.395 489.697 281.246 482.93C279.205 476.162 278.185 469.233 278.185 462.144C278.185 456.88 278.775 451.67 279.957 446.514C281.139 441.357 282.965 436.47 285.436 431.851C288.014 427.124 291.397 423.096 295.587 419.766C299.884 416.436 304.771 414.717 310.25 414.609H313.312H369.063C375.831 415.254 379.537 418.96 380.182 425.728C380.182 428.735 379.054 431.26 376.798 433.301C374.649 435.234 372.071 436.201 369.063 436.201H315.89ZM497.609 425.405C497.609 428.413 496.535 430.938 494.386 432.979C492.345 435.127 489.821 436.201 486.813 436.201H422.36C420.319 436.309 418.6 436.792 417.204 437.651C415.914 438.403 414.948 439.316 414.303 440.391C413.659 441.357 413.336 442.378 413.336 443.452C413.336 444.526 413.659 445.601 414.303 446.675C414.948 447.642 415.914 448.555 417.204 449.414C418.6 450.166 420.319 450.596 422.36 450.703H468.121C475.641 450.918 481.818 452.69 486.652 456.021C491.593 459.243 495.084 463.003 497.125 467.3C499.274 471.489 500.348 475.786 500.348 480.19C500.348 484.487 499.274 488.784 497.125 493.081C494.977 497.271 491.486 501.03 486.652 504.36C481.818 507.583 475.641 509.194 468.121 509.194H467.155C466.51 509.302 465.866 509.355 465.221 509.355H404.313C401.305 509.355 398.727 508.335 396.579 506.294C394.537 504.146 393.517 501.567 393.517 498.56C393.517 495.552 394.591 493.027 396.74 490.986C398.781 488.838 401.305 487.764 404.313 487.764H469.088C471.129 487.871 472.794 487.495 474.083 486.636C475.48 485.776 476.5 484.81 477.145 483.735C477.789 482.554 478.112 481.372 478.112 480.19C478.112 479.438 477.789 478.418 477.145 477.129C476.5 475.732 475.48 474.604 474.083 473.745C472.794 472.886 471.129 472.402 469.088 472.295H423.327C415.807 472.08 409.577 470.361 404.635 467.139C399.801 463.916 396.31 460.264 394.162 456.182C392.121 451.992 391.1 447.749 391.1 443.452C391.1 439.263 392.174 435.127 394.323 431.045C396.471 426.855 399.962 423.149 404.796 419.927C409.63 416.704 415.807 414.985 423.327 414.771H424.293C424.938 414.663 425.582 414.609 426.227 414.609H486.813C489.821 414.609 492.345 415.684 494.386 417.832C496.535 419.873 497.609 422.397 497.609 425.405ZM620.998 425.405C620.998 428.413 619.924 430.938 617.775 432.979C615.734 435.127 613.21 436.201 610.202 436.201H545.749C543.708 436.309 541.989 436.792 540.593 437.651C539.304 438.403 538.337 439.316 537.692 440.391C537.048 441.357 536.725 442.378 536.725 443.452C536.725 444.526 537.048 445.601 537.692 446.675C538.337 447.642 539.304 448.555 540.593 449.414C541.989 450.166 543.708 450.596 545.749 450.703H591.511C599.03 450.918 605.207 452.69 610.041 456.021C614.982 459.243 618.473 463.003 620.514 467.3C622.663 471.489 623.737 475.786 623.737 480.19C623.737 484.487 622.663 488.784 620.514 493.081C618.366 497.271 614.875 501.03 610.041 504.36C605.207 507.583 599.03 509.194 591.511 509.194H590.544C589.899 509.302 589.255 509.355 588.61 509.355H527.702C524.694 509.355 522.116 508.335 519.968 506.294C517.927 504.146 516.906 501.567 516.906 498.56C516.906 495.552 517.98 493.027 520.129 490.986C522.17 488.838 524.694 487.764 527.702 487.764H592.477C594.518 487.871 596.183 487.495 597.472 486.636C598.869 485.776 599.889 484.81 600.534 483.735C601.179 482.554 601.501 481.372 601.501 480.19C601.501 479.438 601.179 478.418 600.534 477.129C599.889 475.732 598.869 474.604 597.472 473.745C596.183 472.886 594.518 472.402 592.477 472.295H546.716C539.196 472.08 532.966 470.361 528.024 467.139C523.19 463.916 519.699 460.264 517.551 456.182C515.51 451.992 514.489 447.749 514.489 443.452C514.489 439.263 515.563 435.127 517.712 431.045C519.86 426.855 523.351 423.149 528.185 419.927C533.019 416.704 539.196 414.985 546.716 414.771H547.682C548.327 414.663 548.971 414.609 549.616 414.609H610.202C613.21 414.609 615.734 415.684 617.775 417.832C619.924 419.873 620.998 422.397 620.998 425.405Z" fill="black"/>
</svg>
