<svg width="900" height="900" viewBox="0 0 900 900" fill="none" xmlns="http://www.w3.org/2000/svg">
<rect width="900" height="900" fill="transparent"/>
<path d="M134.43 666V548.038H206.896V558.721H148.923V599.436H199.575V608.027H148.923V655.317H207.867V666H134.43ZM290.383 548.038H305.025L268.045 607.729L305.175 666H288.888L259.902 619.233L230.916 666H214.63L251.759 607.729L214.779 548.038H229.422L259.902 597.045L290.383 548.038ZM401.137 582.926C401.137 588.853 400.166 594.032 398.224 598.465C396.281 602.897 393.144 606.583 388.811 609.521C384.478 612.46 378.825 614.651 371.852 616.096C364.879 617.54 356.388 618.262 346.377 618.262H333.677V666H319.184V548.038H348.842C352.877 548.038 356.961 548.212 361.094 548.561C365.278 548.909 369.312 549.557 373.197 550.503C377.082 551.399 380.717 552.669 384.104 554.313C387.491 555.907 390.429 557.999 392.919 560.588C395.46 563.178 397.452 566.316 398.896 570.001C400.39 573.637 401.137 577.945 401.137 582.926ZM345.032 607.43C352.553 607.43 358.928 607.006 364.157 606.16C369.437 605.263 373.695 603.894 376.932 602.051C380.169 600.208 382.51 597.867 383.955 595.028C385.449 592.14 386.196 588.703 386.196 584.719C386.196 578.742 385.225 574.036 383.282 570.599C381.39 567.163 378.75 564.573 375.363 562.83C372.026 561.037 368.042 559.916 363.41 559.468C358.778 558.97 353.773 558.721 348.394 558.721H333.677V607.43H345.032ZM453.919 601.603C459.547 601.603 464.254 600.98 468.039 599.735C471.874 598.49 474.937 596.821 477.228 594.729C479.519 592.588 481.138 590.123 482.084 587.333C483.08 584.495 483.578 581.481 483.578 578.294C483.578 575.007 483.03 572.243 481.934 570.001C480.889 567.71 479.444 565.843 477.601 564.398C475.759 562.954 473.617 561.858 471.177 561.111C468.786 560.314 466.246 559.742 463.556 559.393C460.867 559.044 458.103 558.845 455.264 558.795C452.475 558.746 449.785 558.721 447.196 558.721H431.507V601.603H453.919ZM467.815 606.458C473.293 607.056 477.975 608.127 481.86 609.671C485.744 611.215 488.907 613.232 491.348 615.722C493.838 618.212 495.656 621.176 496.801 624.612C497.947 628.049 498.519 631.958 498.519 636.341V666H484.026V635.221C484.026 631.236 483.578 627.899 482.681 625.21C481.785 622.471 480.515 620.229 478.871 618.486C477.228 616.693 475.236 615.324 472.895 614.377C470.554 613.381 467.939 612.659 465.051 612.211C462.162 611.713 459.024 611.439 455.638 611.389C452.251 611.29 448.69 611.24 444.954 611.24H431.507V666H417.014V548.038H451.827C459.049 548.038 465.549 548.585 471.326 549.681C477.153 550.727 482.084 552.42 486.118 554.761C490.152 557.052 493.24 560.041 495.382 563.726C497.573 567.412 498.669 571.869 498.669 577.099C498.669 582.079 497.897 586.412 496.353 590.098C494.809 593.783 492.642 596.846 489.853 599.287C487.114 601.677 483.852 603.47 480.067 604.666C476.331 605.861 472.247 606.458 467.815 606.458ZM518.43 666V548.038H590.896V558.721H532.923V599.436H583.575V608.027H532.923V655.317H591.867V666H518.43ZM682.078 634.772C682.078 639.056 681.355 643.239 679.911 647.323C678.517 651.407 676.151 655.068 672.814 658.305C669.527 661.542 665.169 664.132 659.74 666.075C654.311 668.067 647.613 669.063 639.644 669.063C635.261 669.063 631.028 668.615 626.944 667.718C622.86 666.872 619.224 665.925 616.037 664.879C612.301 663.634 608.79 662.215 605.503 660.621L606.997 649.415C609.935 650.959 613.073 652.354 616.41 653.599C619.249 654.645 622.511 655.591 626.197 656.438C629.882 657.284 633.692 657.708 637.627 657.708C641.561 657.708 645.322 657.409 648.908 656.811C652.494 656.164 655.631 655.018 658.321 653.375C661.01 651.731 663.152 649.465 664.746 646.576C666.339 643.688 667.136 639.977 667.136 635.445C667.136 632.606 666.688 630.041 665.791 627.75C664.945 625.459 663.7 623.417 662.056 621.624C660.413 619.781 658.42 618.188 656.079 616.843C653.788 615.448 651.199 614.228 648.31 613.182L627.093 605.711C623.706 604.516 620.394 603.097 617.157 601.453C613.97 599.76 611.131 597.743 608.641 595.402C606.15 593.011 604.133 590.272 602.589 587.184C601.095 584.096 600.348 580.535 600.348 576.501C600.348 570.973 601.294 566.266 603.187 562.381C605.079 558.497 607.719 555.334 611.106 552.894C614.542 550.403 618.601 548.585 623.283 547.44C628.015 546.294 633.219 545.722 638.897 545.722C642.533 545.722 646.019 545.996 649.356 546.543C652.693 547.042 655.855 547.739 658.844 548.635C661.882 549.532 664.696 550.553 667.286 551.698C669.925 552.794 672.316 553.939 674.457 555.135L672.216 566.117C670.373 565.021 668.257 563.95 665.866 562.904C663.525 561.809 661.01 560.837 658.321 559.991C655.631 559.144 652.817 558.447 649.879 557.899C646.99 557.351 644.077 557.077 641.138 557.077C636.506 557.077 632.547 557.426 629.26 558.123C626.022 558.82 623.358 559.916 621.266 561.41C619.224 562.904 617.705 564.822 616.709 567.163C615.763 569.503 615.289 572.317 615.289 575.604C615.289 583.424 620.096 589.002 629.708 592.339L653.091 600.482C656.976 601.827 660.662 603.52 664.148 605.562C667.684 607.554 670.772 609.945 673.412 612.734C676.101 615.523 678.218 618.735 679.762 622.371C681.306 626.007 682.078 630.141 682.078 634.772ZM774.977 634.772C774.977 639.056 774.255 643.239 772.811 647.323C771.416 651.407 769.05 655.068 765.714 658.305C762.426 661.542 758.069 664.132 752.64 666.075C747.211 668.067 740.512 669.063 732.544 669.063C728.161 669.063 723.927 668.615 719.843 667.718C715.759 666.872 712.124 665.925 708.936 664.879C705.201 663.634 701.69 662.215 698.403 660.621L699.897 649.415C702.835 650.959 705.973 652.354 709.31 653.599C712.149 654.645 715.411 655.591 719.096 656.438C722.782 657.284 726.592 657.708 730.527 657.708C734.461 657.708 738.221 657.409 741.807 656.811C745.393 656.164 748.531 655.018 751.22 653.375C753.91 651.731 756.051 649.465 757.645 646.576C759.239 643.688 760.036 639.977 760.036 635.445C760.036 632.606 759.588 630.041 758.691 627.75C757.844 625.459 756.599 623.417 754.956 621.624C753.312 619.781 751.32 618.188 748.979 616.843C746.688 615.448 744.098 614.228 741.21 613.182L719.993 605.711C716.606 604.516 713.294 603.097 710.057 601.453C706.869 599.76 704.03 597.743 701.54 595.402C699.05 593.011 697.033 590.272 695.489 587.184C693.995 584.096 693.248 580.535 693.248 576.501C693.248 570.973 694.194 566.266 696.087 562.381C697.979 558.497 700.619 555.334 704.006 552.894C707.442 550.403 711.501 548.585 716.183 547.44C720.914 546.294 726.119 545.722 731.797 545.722C735.432 545.722 738.919 545.996 742.256 546.543C745.592 547.042 748.755 547.739 751.743 548.635C754.781 549.532 757.595 550.553 760.185 551.698C762.825 552.794 765.216 553.939 767.357 555.135L765.116 566.117C763.273 565.021 761.156 563.95 758.766 562.904C756.425 561.809 753.91 560.837 751.22 559.991C748.531 559.144 745.717 558.447 742.779 557.899C739.89 557.351 736.976 557.077 734.038 557.077C729.406 557.077 725.446 557.426 722.159 558.123C718.922 558.82 716.258 559.916 714.166 561.41C712.124 562.904 710.605 564.822 709.609 567.163C708.662 569.503 708.189 572.317 708.189 575.604C708.189 583.424 712.995 589.002 722.608 592.339L745.991 600.482C749.876 601.827 753.561 603.52 757.048 605.562C760.584 607.554 763.672 609.945 766.311 612.734C769.001 615.523 771.117 618.735 772.661 622.371C774.205 626.007 774.977 630.141 774.977 634.772Z" fill="black"/>
<path fill-rule="evenodd" clip-rule="evenodd" d="M738.903 194.417H510.689C489.552 194.417 472.417 211.552 472.417 232.689V445.311C472.417 466.448 489.552 483.583 510.689 483.583H738.903C760.04 483.583 777.175 466.448 777.175 445.311V232.689C777.175 211.552 760.04 194.417 738.903 194.417ZM510.689 193C488.77 193 471 210.77 471 232.689V445.311C471 467.23 488.77 485 510.689 485H738.903C760.823 485 778.592 467.23 778.592 445.311V232.689C778.592 210.77 760.823 193 738.903 193H510.689Z" fill="black"/>
<path d="M694.021 449.779C680.232 449.779 665.173 445.243 649.751 432.179C648.118 430.728 648.118 428.732 649.388 427.099L660.093 413.854C661.726 411.858 663.903 411.858 665.717 413.673C674.426 421.293 685.857 425.103 694.203 425.103C704.182 425.103 713.072 420.386 713.072 411.858C713.072 393.352 655.557 395.347 655.557 355.976C655.557 331.845 674.971 319.507 696.199 319.507C710.714 319.507 721.6 321.866 736.478 332.207C738.292 333.296 738.474 335.292 737.385 337.106L727.406 351.077C726.136 352.891 723.959 353.254 722.144 351.984C715.431 347.63 705.452 343.457 696.743 343.457C688.034 343.457 681.865 347.992 681.684 355.794C681.502 373.394 740.288 373.031 740.288 411.677C740.288 434.719 717.971 449.779 694.021 449.779Z" fill="black"/>
<path d="M550.306 415.669C549.762 413.673 550.669 412.041 552.665 411.496L571.171 405.872C573.53 405.327 575.344 406.416 576.07 408.775C578.429 417.121 584.235 423.108 591.855 423.108C601.29 423.108 608.547 416.576 608.547 407.142V324.769C608.547 322.592 609.999 321.141 612.176 321.141H632.315C634.493 321.141 635.944 322.592 635.944 324.769V407.142C635.944 433.45 616.893 449.779 592.399 449.779C571.171 449.779 556.112 436.897 550.306 415.669Z" fill="black"/>
</svg>
