<svg width="900" height="900" viewBox="0 0 900 900" fill="none" xmlns="http://www.w3.org/2000/svg">
<rect width="900" height="900" fill="transparent"/>
<path fill-rule="evenodd" clip-rule="evenodd" d="M713.275 117.092H185.858C137.009 117.092 97.4087 156.552 97.4087 205.228V694.87C97.4087 743.546 137.009 783.006 185.858 783.006H713.275C762.124 783.006 801.724 743.546 801.724 694.87V205.228C801.724 156.552 762.124 117.092 713.275 117.092ZM185.858 113.828C135.199 113.828 94.1328 154.749 94.1328 205.228V694.87C94.1328 745.349 135.199 786.27 185.858 786.27H713.275C763.934 786.27 805 745.349 805 694.87V205.228C805 154.749 763.934 113.828 713.275 113.828H185.858Z" fill="black"/>
<path d="M722.481 469.325L701.063 460.218C699.961 459.811 699.331 458.859 699.331 457.908V443.364C699.331 440.645 701.221 439.693 704.055 441.053L745.788 461.442C746.733 461.985 747.363 462.937 747.363 463.888V474.627C747.363 475.578 746.733 476.529 745.788 477.073L704.055 497.462C701.221 498.821 699.331 497.87 699.331 495.151V480.743C699.331 479.656 700.118 478.704 701.063 478.297L722.481 469.325Z" fill="black"/>
<path d="M646.527 476.941H686.557C688.456 476.941 689.721 478.149 689.721 479.96V495.056C689.721 496.867 688.456 498.075 686.557 498.075H625.642C623.743 498.075 622.477 496.867 622.477 495.056V395.424C622.477 393.613 623.743 392.405 625.642 392.405H643.362C645.261 392.405 646.527 393.613 646.527 395.424V476.941Z" fill="black"/>
<path d="M545.631 457.467L578.722 394.066C579.343 393.009 580.431 392.405 581.518 392.405H600.161C602.026 392.405 603.268 393.613 603.268 395.424V495.056C603.268 496.867 602.026 498.075 600.161 498.075H582.761C580.897 498.075 579.654 496.867 579.654 495.056V441.013L555.729 487.206C555.107 488.263 554.02 488.866 552.932 488.866H538.329C537.241 488.866 536.154 488.263 535.532 487.206L511.607 441.013V495.056C511.607 496.867 510.364 498.075 508.5 498.075H491.1C489.236 498.075 487.993 496.867 487.993 495.056V395.424C487.993 393.613 489.236 392.405 491.1 392.405H509.743C510.83 392.405 511.918 393.009 512.539 394.066L545.631 457.467Z" fill="black"/>
<path d="M451.831 413.539V495.056C451.831 496.867 450.581 498.075 448.707 498.075H431.212C429.338 498.075 428.088 496.867 428.088 495.056V413.539H404.658C402.784 413.539 401.534 412.332 401.534 410.52V395.424C401.534 393.613 402.784 392.405 404.658 392.405H475.261C477.135 392.405 478.385 393.613 478.385 395.424V410.52C478.385 412.332 477.135 413.539 475.261 413.539H451.831Z" fill="black"/>
<path d="M388.852 392.405C390.697 392.405 391.926 393.613 391.926 395.424V495.056C391.926 496.867 390.697 498.075 388.852 498.075H371.638C369.793 498.075 368.564 496.867 368.564 495.056V454.599H319.226V495.056C319.226 496.867 317.996 498.075 316.152 498.075H298.937C297.093 498.075 295.863 496.867 295.863 495.056V395.424C295.863 393.613 297.093 392.405 298.937 392.405H316.152C317.996 392.405 319.226 393.613 319.226 395.424V433.465H368.564V395.424C368.564 393.613 369.793 392.405 371.638 392.405H388.852Z" fill="black"/>
<path d="M283.235 392.405C285.685 392.405 286.838 394.066 285.974 396.481L249.37 496.112C248.938 497.32 247.929 498.075 246.632 498.075H231.645C229.195 498.075 228.042 496.414 228.907 493.999L265.366 394.368C265.798 393.16 266.951 392.405 268.104 392.405H283.235Z" fill="black"/>
<path d="M219.014 457.908C219.014 458.859 218.385 459.811 217.282 460.218L195.865 469.325L217.282 478.297C218.227 478.704 219.014 479.656 219.014 480.743V495.151C219.014 497.87 217.125 498.821 214.29 497.462L172.558 477.073C171.613 476.529 170.983 475.578 170.983 474.627V463.888C170.983 462.937 171.613 461.985 172.558 461.442L214.29 441.053C217.125 439.693 219.014 440.645 219.014 443.364V457.908Z" fill="black"/>
</svg>
