<svg width="900" height="900" viewBox="0 0 900 900" fill="none" xmlns="http://www.w3.org/2000/svg">
<rect width="900" height="900" fill="transparent"/>
<path fill-rule="evenodd" clip-rule="evenodd" d="M722.975 104.293H176.579C125.972 104.293 84.9475 145.318 84.9475 195.925V704.989C84.9475 755.595 125.972 796.62 176.579 796.62H722.975C773.581 796.62 814.606 755.596 814.606 704.989V195.925C814.606 145.318 773.581 104.293 722.975 104.293ZM176.579 100.899C124.098 100.899 81.5537 143.444 81.5537 195.925V704.989C81.5537 757.47 124.098 800.014 176.579 800.014H722.975C775.456 800.014 818 757.47 818 704.989V195.925C818 143.444 775.456 100.899 722.975 100.899H176.579Z" fill="black"/>
<path d="M615.517 715.685C582.503 715.685 546.447 704.825 509.523 673.548C505.614 670.073 505.614 665.295 508.654 661.385L534.284 629.674C538.194 624.895 543.407 624.896 547.751 629.24C568.602 647.484 595.969 656.607 615.952 656.607C639.844 656.607 661.129 645.312 661.129 624.896C661.129 580.587 523.424 585.365 523.424 491.1C523.424 433.324 569.905 403.785 620.73 403.785C655.482 403.785 681.546 409.432 717.167 434.193C721.511 436.8 721.946 441.578 719.339 445.922L695.447 479.371C692.406 483.715 687.193 484.584 682.849 481.543C666.776 471.117 642.884 461.126 622.033 461.126C601.182 461.126 586.412 471.986 585.978 490.665C585.543 532.802 726.29 531.934 726.29 624.461C726.29 679.63 672.858 715.685 615.517 715.685Z" fill="black"/>
<path d="M271.432 634.02C270.129 629.242 272.301 625.332 277.079 624.029L321.388 610.563C327.035 609.26 331.379 611.866 333.117 617.513C338.764 637.496 352.665 651.831 370.91 651.831C393.499 651.831 410.875 636.192 410.875 613.604V416.385C410.875 411.172 414.35 407.697 419.563 407.697H467.781C472.994 407.697 476.469 411.172 476.469 416.385V613.604C476.469 676.592 430.857 715.688 372.213 715.688C321.388 715.688 285.333 684.845 271.432 634.02Z" fill="black"/>
</svg>
