<svg width="900" height="900" viewBox="0 0 900 900" fill="none" xmlns="http://www.w3.org/2000/svg">
<rect width="900" height="900" fill="transparent"/>
<path d="M528.009 319.918C508.899 235.288 463.725 207.472 458.871 196.84C454.638 190.864 450.859 182.371 447.759 175C447.215 182.508 446.928 185.389 439.852 192.957C428.921 201.542 372.756 248.801 368.19 344.927C363.927 434.593 432.746 488.025 442.09 494.835L443.148 495.593C445.094 510.028 446.757 524.5 448.137 539H455.409C457.133 523.348 459.703 507.817 463.12 492.438C469.424 487.949 472.251 485.416 475.971 481.928C493.583 465.583 507.58 445.711 517.057 423.599C526.534 401.486 531.28 377.625 530.987 353.557C531.138 341.211 529.43 328.35 528.009 319.918ZM447.336 444.208C447.336 444.208 447.336 318.462 451.494 318.477C454.714 318.477 458.902 480.684 458.902 480.684C453.141 480.002 447.336 453.991 447.336 444.208Z" fill="black"/>
<path d="M156.535 611.25V706H143.936V603.458H165.367L196.214 692.492L227.061 603.458H248.492V706H235.893V611.25L202.578 706H189.85L156.535 611.25ZM298.336 699.831C301.453 699.831 304.159 699.398 306.453 698.532C308.791 697.623 310.783 696.41 312.428 694.895C314.116 693.336 315.502 691.54 316.584 689.505C317.666 687.47 318.532 685.327 319.182 683.076C319.831 680.781 320.286 678.443 320.545 676.062C320.805 673.681 320.935 671.386 320.935 669.178C320.935 666.97 320.805 664.697 320.545 662.359C320.286 659.978 319.831 657.662 319.182 655.411C318.532 653.116 317.666 650.951 316.584 648.917C315.502 646.882 314.116 645.107 312.428 643.591C310.783 642.033 308.791 640.82 306.453 639.955C304.115 639.045 301.409 638.591 298.336 638.591C295.262 638.591 292.556 639.045 290.218 639.955C287.923 640.864 285.932 642.098 284.243 643.656C282.598 645.172 281.213 646.947 280.087 648.981C279.005 651.016 278.139 653.159 277.489 655.411C276.84 657.662 276.385 659.978 276.126 662.359C275.866 664.741 275.736 667.014 275.736 669.178C275.736 671.386 275.866 673.681 276.126 676.062C276.385 678.4 276.84 680.716 277.489 683.011C278.139 685.262 279.005 687.405 280.087 689.44C281.213 691.475 282.598 693.271 284.243 694.83C285.932 696.345 287.923 697.558 290.218 698.467C292.556 699.376 295.262 699.831 298.336 699.831ZM332.69 668.983C332.69 672.014 332.473 675.11 332.04 678.27C331.607 681.387 330.871 684.418 329.832 687.362C328.793 690.306 327.408 693.055 325.676 695.609C323.987 698.164 321.866 700.393 319.312 702.298C316.801 704.203 313.792 705.697 310.285 706.779C306.821 707.905 302.816 708.468 298.271 708.468C293.725 708.468 289.698 707.905 286.191 706.779C282.728 705.697 279.719 704.203 277.165 702.298C274.654 700.393 272.532 698.164 270.8 695.609C269.112 693.055 267.748 690.306 266.709 687.362C265.67 684.418 264.934 681.387 264.501 678.27C264.068 675.153 263.852 672.057 263.852 668.983C263.852 665.91 264.068 662.814 264.501 659.697C264.934 656.536 265.67 653.506 266.709 650.605C267.748 647.661 269.112 644.912 270.8 642.357C272.532 639.803 274.654 637.573 277.165 635.668C279.719 633.764 282.728 632.27 286.191 631.188C289.698 630.105 293.725 629.564 298.271 629.564C302.816 629.564 306.821 630.105 310.285 631.188C313.792 632.27 316.801 633.764 319.312 635.668C321.866 637.573 323.987 639.803 325.676 642.357C327.408 644.912 328.793 647.661 329.832 650.605C330.871 653.506 331.607 656.536 332.04 659.697C332.473 662.814 332.69 665.91 332.69 668.983ZM357.986 642.228C359.284 640.626 361.016 639.024 363.181 637.422C365.346 635.82 367.705 634.37 370.259 633.071C372.857 631.772 375.541 630.733 378.312 629.954C381.126 629.131 383.811 628.72 386.365 628.72C390.911 628.72 394.742 629.412 397.86 630.798C401.02 632.14 403.596 634.11 405.588 636.708C407.579 639.262 409.008 642.401 409.874 646.124C410.783 649.847 411.237 654.069 411.237 658.788V706H398.899V658.788C398.899 655.497 398.639 652.553 398.119 649.956C397.6 647.315 396.756 645.085 395.587 643.267C394.418 641.448 392.902 640.063 391.041 639.11C389.179 638.115 386.884 637.617 384.157 637.617C382.079 637.617 379.806 638.028 377.338 638.851C374.87 639.673 372.489 640.669 370.194 641.838C367.9 643.007 365.8 644.241 363.895 645.54C361.99 646.838 360.583 647.942 359.674 648.852V706H347.335V630.083H356.427L357.986 642.228ZM456.211 723.989C460.67 723.989 464.653 723.881 468.16 723.664C471.667 723.448 474.611 722.885 476.992 721.976C479.416 721.066 481.256 719.681 482.512 717.819C483.767 716.001 484.395 713.49 484.395 710.286C484.395 707.429 483.789 705.177 482.577 703.532C481.408 701.844 479.698 700.567 477.447 699.701C475.239 698.835 472.533 698.294 469.329 698.077C466.168 697.817 462.618 697.688 458.678 697.688C456.687 697.688 454.587 697.709 452.379 697.752C450.214 697.752 447.963 697.752 445.625 697.752C444.716 698.445 443.807 699.224 442.898 700.09C441.989 700.956 441.166 701.909 440.43 702.948C439.737 703.987 439.153 705.091 438.677 706.26C438.244 707.472 438.027 708.771 438.027 710.156C438.027 712.711 438.33 714.854 438.936 716.585C439.542 718.361 440.538 719.789 441.924 720.872C443.352 721.997 445.214 722.798 447.509 723.274C449.846 723.751 452.747 723.989 456.211 723.989ZM459.847 667.75C462.229 667.23 464.372 666.646 466.277 665.996C468.182 665.347 469.783 664.416 471.082 663.204C472.424 661.948 473.442 660.303 474.135 658.268C474.827 656.19 475.174 653.484 475.174 650.15C475.174 647.726 474.827 645.691 474.135 644.046C473.485 642.401 472.468 641.08 471.082 640.084C469.697 639.089 467.943 638.374 465.822 637.941C463.744 637.508 461.298 637.292 458.484 637.292C456.146 637.292 453.916 637.487 451.795 637.876C449.717 638.266 447.898 638.98 446.34 640.02C444.781 641.059 443.525 642.487 442.573 644.306C441.664 646.081 441.209 648.354 441.209 651.125C441.209 653.159 441.534 655.108 442.183 656.969C442.876 658.831 443.742 660.541 444.781 662.1C445.863 663.658 447.076 665.022 448.418 666.191C449.76 667.36 451.102 668.269 452.444 668.918L459.847 667.75ZM480.629 639.435C482.274 641.08 483.551 642.725 484.46 644.371C485.413 646.016 485.889 647.942 485.889 650.15C485.889 653.614 485.456 656.753 484.59 659.567C483.724 662.338 482.36 664.762 480.499 666.84C478.637 668.918 476.234 670.672 473.29 672.101C470.39 673.529 466.861 674.612 462.705 675.348L439.975 679.504L441.209 689.115H460.042C466.147 689.115 471.407 689.483 475.823 690.219C480.239 690.912 483.854 692.103 486.668 693.791C489.482 695.479 491.56 697.688 492.903 700.415C494.245 703.143 494.916 706.52 494.916 710.546C494.916 715.265 493.942 719.118 491.993 722.105C490.088 725.136 487.383 727.496 483.876 729.184C480.412 730.916 476.256 732.106 471.407 732.756C466.601 733.405 461.298 733.73 455.496 733.73C451.47 733.73 447.747 733.319 444.326 732.496C440.949 731.717 438.027 730.461 435.559 728.729C433.092 726.998 431.165 724.768 429.78 722.041C428.437 719.313 427.766 716.023 427.766 712.169C427.766 710.048 428.134 708.143 428.87 706.455C429.606 704.766 430.559 703.294 431.728 702.039C432.897 700.74 434.217 699.657 435.689 698.792C437.205 697.926 438.741 697.255 440.3 696.778C438.655 696.432 437.269 695.934 436.144 695.285C435.061 694.592 434.152 693.639 433.416 692.427C432.68 691.172 432.096 689.57 431.663 687.622C431.23 685.673 430.884 683.227 430.624 680.283C430.58 680.153 430.559 679.829 430.559 679.309C430.559 677.621 431.057 676.278 432.052 675.283C433.092 674.244 434.304 673.443 435.689 672.88C437.075 672.274 438.503 671.841 439.975 671.581C441.447 671.278 442.638 671.018 443.547 670.802C441.945 670.326 440.365 669.481 438.806 668.269C437.291 667.057 435.927 665.563 434.715 663.788C433.546 662.013 432.594 660 431.858 657.749C431.122 655.497 430.754 653.094 430.754 650.54C430.754 647.163 431.381 644.132 432.637 641.448C433.892 638.764 435.711 636.491 438.092 634.629C440.473 632.724 443.396 631.274 446.859 630.278C450.366 629.239 454.327 628.72 458.743 628.72C462.25 628.72 465.497 629.088 468.485 629.824C471.472 630.56 474.07 631.837 476.278 633.655C477.923 632.833 479.287 632.183 480.369 631.707C481.451 631.188 482.577 630.798 483.746 630.538C484.915 630.235 486.279 630.04 487.837 629.954C489.439 629.867 491.539 629.824 494.136 629.824H496.085V639.435H480.629ZM540.473 699.831C543.591 699.831 546.297 699.398 548.591 698.532C550.929 697.623 552.921 696.41 554.566 694.895C556.254 693.336 557.64 691.54 558.722 689.505C559.804 687.47 560.67 685.327 561.32 683.076C561.969 680.781 562.424 678.443 562.683 676.062C562.943 673.681 563.073 671.386 563.073 669.178C563.073 666.97 562.943 664.697 562.683 662.359C562.424 659.978 561.969 657.662 561.32 655.411C560.67 653.116 559.804 650.951 558.722 648.917C557.64 646.882 556.254 645.107 554.566 643.591C552.921 642.033 550.929 640.82 548.591 639.955C546.253 639.045 543.547 638.591 540.473 638.591C537.4 638.591 534.694 639.045 532.356 639.955C530.061 640.864 528.07 642.098 526.381 643.656C524.736 645.172 523.351 646.947 522.225 648.981C521.143 651.016 520.277 653.159 519.627 655.411C518.978 657.662 518.523 659.978 518.263 662.359C518.004 664.741 517.874 667.014 517.874 669.178C517.874 671.386 518.004 673.681 518.263 676.062C518.523 678.4 518.978 680.716 519.627 683.011C520.277 685.262 521.143 687.405 522.225 689.44C523.351 691.475 524.736 693.271 526.381 694.83C528.07 696.345 530.061 697.558 532.356 698.467C534.694 699.376 537.4 699.831 540.473 699.831ZM574.827 668.983C574.827 672.014 574.611 675.11 574.178 678.27C573.745 681.387 573.009 684.418 571.97 687.362C570.931 690.306 569.546 693.055 567.814 695.609C566.125 698.164 564.004 700.393 561.45 702.298C558.938 704.203 555.93 705.697 552.423 706.779C548.959 707.905 544.954 708.468 540.409 708.468C535.863 708.468 531.836 707.905 528.329 706.779C524.866 705.697 521.857 704.203 519.303 702.298C516.791 700.393 514.67 698.164 512.938 695.609C511.25 693.055 509.886 690.306 508.847 687.362C507.808 684.418 507.072 681.387 506.639 678.27C506.206 675.153 505.99 672.057 505.99 668.983C505.99 665.91 506.206 662.814 506.639 659.697C507.072 656.536 507.808 653.506 508.847 650.605C509.886 647.661 511.25 644.912 512.938 642.357C514.67 639.803 516.791 637.573 519.303 635.668C521.857 633.764 524.866 632.27 528.329 631.188C531.836 630.105 535.863 629.564 540.409 629.564C544.954 629.564 548.959 630.105 552.423 631.188C555.93 632.27 558.938 633.764 561.45 635.668C564.004 637.573 566.125 639.803 567.814 642.357C569.546 644.912 570.931 647.661 571.97 650.605C573.009 653.506 573.745 656.536 574.178 659.697C574.611 662.814 574.827 665.91 574.827 668.983ZM657.012 654.761C657.012 640.95 654.653 630.495 649.934 623.395C645.258 616.294 638.049 612.744 628.308 612.744H602.656V696.648H626.814C636.772 696.648 644.284 693.12 649.349 686.063C654.458 679.006 657.012 668.572 657.012 654.761ZM670.065 654.307C670.065 658.982 669.784 663.507 669.221 667.879C668.702 672.252 667.792 676.365 666.494 680.218C665.195 684.028 663.463 687.513 661.298 690.674C659.134 693.834 656.428 696.562 653.181 698.856C649.934 701.108 646.102 702.861 641.686 704.117C637.313 705.372 632.226 706 626.425 706H590.252V603.458H625.256C632.702 603.458 639.218 604.453 644.803 606.445C650.388 608.393 655.042 611.424 658.766 615.537C662.532 619.65 665.346 624.931 667.208 631.382C669.113 637.79 670.065 645.431 670.065 654.307ZM708.934 603.458C711.618 603.458 714.562 603.522 717.766 603.652C721.013 603.739 724.26 604.02 727.507 604.497C730.754 604.973 733.893 605.709 736.924 606.705C739.998 607.7 742.704 609.064 745.042 610.796C747.423 612.484 749.328 614.627 750.756 617.225C752.185 619.823 752.899 622.983 752.899 626.707C752.899 631.296 752.402 634.997 751.406 637.812C750.41 640.626 748.981 642.855 747.12 644.5C745.258 646.146 743.028 647.358 740.431 648.137C737.833 648.917 734.954 649.544 731.793 650.021C733.612 650.237 735.517 650.54 737.508 650.93C739.543 651.276 741.535 651.861 743.483 652.683C745.431 653.462 747.293 654.523 749.068 655.865C750.886 657.164 752.466 658.853 753.809 660.931C755.151 662.965 756.211 665.433 756.991 668.334C757.813 671.235 758.225 674.677 758.225 678.66C758.225 682.773 757.727 686.301 756.731 689.245C755.778 692.189 754.371 694.679 752.51 696.713C750.691 698.705 748.44 700.328 745.756 701.584C743.115 702.796 740.106 703.727 736.729 704.376C733.352 705.026 729.65 705.459 725.624 705.675C721.598 705.892 717.312 706 712.766 706H685.49V603.458H708.934ZM712.766 696.713C719.173 696.713 724.52 696.324 728.806 695.544C733.136 694.765 736.599 693.553 739.197 691.908C741.794 690.263 743.634 688.163 744.717 685.608C745.842 683.011 746.405 679.915 746.405 676.322C746.405 672.295 745.778 668.918 744.522 666.191C743.31 663.42 741.405 661.212 738.807 659.567C736.253 657.922 733.006 656.753 729.066 656.06C725.169 655.324 720.537 654.956 715.168 654.956H698.089V696.713H712.766ZM698.089 646.579H714.909C720.277 646.579 724.715 646.232 728.222 645.54C731.772 644.847 734.564 643.743 736.599 642.228C738.677 640.669 740.128 638.677 740.95 636.253C741.773 633.785 742.184 630.798 742.184 627.291C742.184 624.693 741.578 622.485 740.366 620.667C739.197 618.805 737.292 617.29 734.651 616.121C732.053 614.952 728.655 614.108 724.455 613.588C720.256 613.026 715.168 612.744 709.194 612.744H698.089V646.579Z" fill="black"/>
</svg>
