<svg width="900" height="900" viewBox="0 0 900 900" fill="none" xmlns="http://www.w3.org/2000/svg">
<rect width="900" height="900" fill="transparent"/>
<path d="M618.922 361.247V454.447C618.922 455.555 618.922 456.664 618.922 457.773C618.95 459.378 618.53 460.959 617.708 462.339C616.887 463.719 615.697 464.844 614.271 465.587C609.95 468.095 605.636 470.611 601.307 473.096C594.089 477.245 586.869 481.384 579.647 485.513C570.743 490.611 561.843 495.708 552.945 500.806C551.619 501.57 550.271 502.289 549.022 503.161C545.022 505.929 541.069 505.952 536.992 503.283C534.694 501.754 532.219 500.462 529.813 499.085C518.749 492.729 507.685 486.375 496.622 480.023C488.331 475.252 480.044 470.471 471.758 465.679C470.209 464.872 468.923 463.638 468.054 462.125C467.185 460.611 466.769 458.881 466.855 457.138C466.855 449.652 466.855 442.159 466.855 434.673V383.964C466.855 382.993 466.855 382.022 466.855 381.058C466.783 379.382 467.191 377.721 468.031 376.268C468.871 374.815 470.108 373.631 471.598 372.854C473.758 371.607 475.904 370.33 478.072 369.092C488.911 362.898 499.753 356.707 510.597 350.519C517.454 346.581 524.258 342.559 531.093 338.583C533.391 337.253 535.69 335.961 537.943 334.638C541.39 332.635 544.777 332.742 548.187 334.768C552.722 337.459 557.297 340.082 561.856 342.735C562.752 343.39 563.779 343.846 564.867 344.073C566.606 344.28 567.985 343.454 568.238 341.779C568.398 340.404 568.454 339.019 568.407 337.635C568.407 305.597 568.407 273.56 568.407 241.522C568.407 240.138 568.368 238.746 568.475 237.362C568.506 236.775 568.674 236.204 568.966 235.693C569.258 235.183 569.666 234.747 570.157 234.423C570.648 234.098 571.208 233.892 571.793 233.822C572.378 233.753 572.971 233.821 573.525 234.021C574.7 234.437 575.832 234.967 576.904 235.604C583.937 239.509 590.966 243.431 597.989 247.371C603.077 250.208 608.134 253.114 613.313 255.828C617.144 257.854 619.014 260.836 618.968 265.187C618.884 273.651 618.968 282.108 618.968 290.573L618.922 361.247ZM568.1 419.266C568.1 415.52 567.939 411.765 568.154 408.034C568.307 405.388 567.158 403.89 564.982 402.781C563.373 401.971 561.833 401.03 560.27 400.135C555.213 397.23 550.133 394.363 545.122 391.388C543.497 390.417 542.057 390.272 540.525 391.388C540.08 391.709 539.506 391.832 538.992 392.115C532.625 395.785 526.281 399.516 519.837 403.133C519.031 403.518 518.362 404.141 517.922 404.918C517.482 405.694 517.292 406.588 517.378 407.476C517.477 413.853 517.378 420.237 517.378 426.591C517.378 428.396 517.378 430.2 517.378 431.997C517.355 432.554 517.496 433.106 517.783 433.584C518.07 434.062 518.491 434.446 518.995 434.689C520.818 435.698 522.619 436.746 524.427 437.747C529.844 440.806 535.299 443.864 540.67 447.06C541.3 447.478 542.043 447.693 542.799 447.677C543.556 447.661 544.288 447.413 544.9 446.969C551.841 442.891 558.819 438.879 565.832 434.933C566.519 434.627 567.1 434.126 567.504 433.493C567.907 432.859 568.114 432.121 568.1 431.37C568.1 427.31 568.1 423.288 568.1 419.266Z" fill="black"/>
<path d="M248.321 430.187V479.283C248.321 480.254 248.26 481.233 248.321 482.197C248.566 485.821 244.674 488.237 241.341 485.874C239.763 484.758 237.977 483.94 236.292 482.976C225.22 476.622 214.195 470.2 203.069 463.945C199.392 461.881 197.706 458.998 197.79 454.838C197.882 449.57 197.79 444.302 197.79 439.034C197.79 429.323 197.629 419.605 197.859 409.901C197.982 404.549 195.928 401.062 191.071 398.7C186.336 396.406 181.876 393.577 177.34 390.862C174 388.851 170.828 388.989 167.525 390.939C162.515 393.906 157.463 396.803 152.37 399.633C148.715 401.659 147.106 404.61 147.129 408.808C147.221 423.504 146.999 438.215 147.252 452.911C147.344 458.539 145.589 462.209 140.417 464.962C129.154 470.957 118.198 477.509 107.103 483.833C105.655 484.659 104.276 485.63 102.774 486.333C99.9239 487.671 97.4951 486.394 96.8514 483.275C96.6968 482.317 96.6377 481.346 96.6752 480.377C96.6139 446.947 96.5628 413.521 96.522 380.096C96.4836 379.404 96.4836 378.709 96.522 378.017C96.8821 374.958 98.0544 372.511 100.897 370.913C106.59 367.732 112.191 364.391 117.845 361.126C125.053 356.967 132.27 352.817 139.498 348.678C148.884 343.326 158.285 337.973 167.648 332.522C170.989 330.587 174.092 330.648 177.448 332.621C187.5 338.516 197.622 344.282 207.735 350.07C218.57 356.263 229.416 362.444 240.276 368.612C241.808 369.506 243.394 370.439 244.873 371.464C245.937 372.134 246.814 373.063 247.419 374.164C248.025 375.264 248.341 376.501 248.336 377.757C248.336 379.003 248.336 380.249 248.336 381.503V430.187H248.321Z" fill="black"/>
<path d="M652.702 418.052V382.672C652.702 381.701 652.702 380.73 652.702 379.759C652.61 376.074 654.235 373.451 657.445 371.616C671.799 363.46 686.126 355.256 700.429 347.003C707.409 342.988 714.351 338.913 721.315 334.883C722.518 334.188 723.752 333.561 724.985 332.918C726.081 332.303 727.318 331.98 728.575 331.98C729.832 331.98 731.069 332.303 732.165 332.918C735.342 334.626 738.496 336.377 741.627 338.171C753.166 344.798 764.697 351.466 776.221 358.174C783.883 362.629 791.545 367.107 799.207 371.608C802.272 373.42 804.095 375.89 803.996 379.713C803.835 385.677 803.873 391.649 803.996 397.613C804.057 401.222 802.402 403.661 799.399 405.389L775.608 419.153C770.684 422.002 765.768 424.867 760.859 427.747C756.139 430.523 753.136 428.833 753.074 423.282C753.021 418.426 753.074 413.571 753.074 408.716C753.074 407.744 753.074 406.773 753.028 405.802C753.014 405.041 752.792 404.298 752.388 403.653C751.983 403.008 751.41 402.485 750.73 402.14C744.207 398.444 737.722 394.69 731.276 390.877C729.023 389.546 727.031 389.409 724.679 390.831C718.381 394.654 711.983 398.255 705.562 401.842C704.625 402.299 703.843 403.022 703.317 403.922C702.791 404.821 702.543 405.856 702.605 406.896C702.605 414.389 702.666 421.875 702.605 429.368C702.561 430.41 702.82 431.443 703.352 432.342C703.883 433.24 704.665 433.965 705.601 434.43C707.899 435.76 710.198 437.052 712.496 438.352C723.346 444.53 734.198 450.706 745.052 456.879C753.363 461.62 761.663 466.386 769.954 471.178C770.919 471.736 771.838 472.363 772.804 472.913C775.355 474.381 775.685 478.151 772.635 480.162C771.486 480.927 770.222 481.515 769.003 482.181C759.763 487.278 750.523 492.36 741.282 497.427C738.608 498.903 735.919 500.31 733.299 501.923C729.881 504.064 726.656 504.049 723.139 502.015C711.133 495.057 699.065 488.252 687.005 481.37C677.719 476.086 668.409 470.849 659.115 465.581C658.273 465.099 657.476 464.533 656.618 464.051C654.036 462.644 653.009 460.328 652.787 457.56C652.702 456.451 652.741 455.342 652.741 454.226V418.052H652.702Z" fill="black"/>
<path d="M285.472 373.018C287.556 370.931 290.283 369.837 292.758 368.369C300.259 363.919 307.822 359.576 315.376 355.226C321.981 351.402 328.616 347.702 335.221 343.917C340.27 341.034 345.289 338.106 350.338 335.208C351.411 334.588 352.545 334.061 353.625 333.441C354.573 332.864 355.638 332.506 356.742 332.394C357.847 332.281 358.962 332.417 360.007 332.791C359.988 334.289 360.554 335.734 361.586 336.821C362.248 337.68 362.567 338.753 362.482 339.834C362.123 340.058 361.864 340.413 361.761 340.824C361.659 341.234 361.719 341.669 361.93 342.036C362.827 344.085 362.229 346.027 361.93 348.099C361.632 350.171 362.95 352.098 362.298 354.216C362.262 354.351 362.214 354.481 362.153 354.606C361.509 355.96 361.8 357.236 362.206 358.62C363.287 362.359 363.938 366.16 362.873 370.052C362.754 370.446 362.754 370.866 362.873 371.26C363.639 373.424 363.302 375.656 363.31 377.851C363.34 392.955 363.34 408.056 363.31 423.155C363.31 428.392 363.631 433.661 361.823 438.738C361.218 440.443 362.375 441.957 362.528 443.601C362.697 445.42 361.18 447.026 362.038 448.861C362.605 450.069 362.344 451.239 362.038 452.486C361.386 454.902 361.54 469.804 362.137 472.32C362.723 474.465 362.702 476.731 362.076 478.865C361.547 480.307 361.496 481.88 361.93 483.353C362.636 485.606 362.726 488.005 362.191 490.304C362.023 490.824 361.973 491.375 362.045 491.917C362.98 495.335 362.306 498.799 362.482 502.247C362.311 502.495 362.082 502.697 361.815 502.837C361.548 502.977 361.251 503.05 360.95 503.05L360.046 503.57C359.786 503.717 359.5 503.81 359.204 503.844C358.908 503.879 358.608 503.853 358.322 503.769C358.298 502.675 357.955 501.612 357.333 500.71C353.418 493.699 349.579 486.641 345.725 479.591C345.067 478.376 344.477 477.114 343.802 475.906C340.025 469.131 336.209 462.387 332.463 455.598C330.126 451.369 327.911 447.064 325.567 442.821C322.645 437.479 319.693 432.152 316.71 426.84C314.756 423.346 312.725 419.897 310.726 416.434C307.952 411.181 305.286 405.867 302.366 400.69C299.164 395.024 295.946 389.381 292.973 383.585C291.44 380.527 289.487 377.614 287.747 374.632C287.55 374.182 287.234 373.795 286.833 373.51C286.433 373.226 285.962 373.056 285.472 373.018Z" fill="black"/>
<path d="M523.592 579.178V612.89C523.592 614.136 523.653 615.398 523.531 616.636C523.125 620.697 521.447 624.13 517.953 626.393C514.336 628.725 510.628 630.92 506.904 633.076C495.6 639.606 484.294 646.115 472.985 652.604C466.733 656.206 460.534 659.899 454.228 663.401C448.865 666.39 443.394 666.459 438 663.21C432.169 659.708 426.285 656.328 420.447 652.811C419.258 652.095 418.128 651.288 417.068 650.395C416.961 650.303 416.879 650.186 416.829 650.055C416.779 649.924 416.763 649.782 416.782 649.643C416.801 649.504 416.855 649.372 416.938 649.259C417.021 649.145 417.132 649.055 417.259 648.995C417.972 648.569 418.721 648.206 419.497 647.91C421.795 647 424.193 646.189 426.27 644.736C426.777 644.367 427.39 644.172 428.018 644.182C428.646 644.192 429.253 644.405 429.748 644.79C433.664 647.16 437.632 649.454 441.578 651.786C442.053 652.069 442.521 652.367 442.973 652.696C443.901 653.439 445.051 653.853 446.241 653.873C447.432 653.892 448.594 653.516 449.547 652.803C451.531 651.526 453.623 650.425 455.676 649.248C466.24 643.131 476.808 636.998 487.382 630.851C494.231 626.89 501.12 622.998 507.992 619.076C508.759 618.663 509.425 618.234 510.153 617.822C510.781 617.517 511.3 617.025 511.637 616.415C511.975 615.804 512.115 615.104 512.038 614.411C511.977 613.578 512.038 612.744 512.038 611.911V545.733C512.038 540.679 512.038 540.725 507.663 538.278C500.652 534.317 493.672 530.295 486.692 526.281C475.741 519.986 464.797 513.68 453.861 507.364C452.535 506.6 451.194 505.835 449.945 504.994C447.647 503.373 445.44 503.365 442.98 504.826C434.016 510.124 424.983 515.347 415.957 520.546C407.529 525.402 399.1 530.188 390.672 535.021C388.021 536.55 385.424 538.163 382.742 539.608C382.043 539.925 381.462 540.452 381.08 541.116C380.697 541.78 380.534 542.547 380.612 543.309C380.65 544.005 380.612 544.701 380.612 545.389C380.612 567.583 380.612 589.783 380.612 611.988C380.612 616.996 380.206 616.453 384.765 619.106C389.446 621.821 394.174 624.459 398.886 627.119C401.049 628.411 403.538 629.058 406.057 628.985C408.096 628.972 410.056 628.203 411.556 626.826C413.056 625.449 413.989 623.563 414.171 621.538C414.276 620.154 414.304 618.765 414.256 617.378V552.454C414.256 551.208 414.256 549.954 414.325 548.715C414.394 547.476 415.16 546.551 416.393 546.505C418.891 546.413 421.397 546.413 423.895 546.505C425.151 546.551 425.802 547.354 425.917 548.723C426.002 549.686 425.971 550.665 425.971 551.636C425.971 574.248 425.971 596.861 425.971 619.473C426.002 621.416 425.925 623.358 425.741 625.292C425.54 627.65 424.847 629.94 423.707 632.015C422.567 634.091 421.005 635.905 419.121 637.342C417.585 638.544 415.816 639.416 413.926 639.904C407.498 641.525 401.23 641.158 395.246 638.168C392.266 636.685 389.331 635.11 386.435 633.458C382.803 631.409 379.225 629.283 375.639 627.173C373.752 626.11 372.16 624.594 371.008 622.762C369.857 620.93 369.181 618.841 369.042 616.682C368.912 615.306 368.843 613.914 368.843 612.53C368.843 590.061 368.843 567.586 368.843 545.106C368.843 544.135 368.843 543.164 368.897 542.193C369.203 536.84 371.456 532.704 376.298 529.959C383.577 525.899 390.741 521.647 397.959 517.48L425.036 501.897C429.48 499.336 433.916 496.751 438.368 494.19C443.31 491.338 448.329 490.948 453.424 493.8C455.485 494.947 457.569 496.055 459.615 497.233L498.898 519.965C505.027 523.513 511.157 527.007 517.286 530.624C521.439 533.086 523.37 536.94 523.63 541.68C523.684 542.644 523.63 543.623 523.63 544.594L523.592 579.178Z" fill="black"/>
<path d="M362.483 339.838C362.568 338.758 362.249 337.685 361.587 336.825C360.555 335.739 359.989 334.293 360.008 332.796C360.407 332.689 360.629 332.911 360.82 333.209C361.012 333.507 361.158 333.821 361.587 333.522C365.134 334.799 368.145 337.07 371.386 338.875C382.351 345.068 393.261 351.353 404.18 357.631C412.455 362.397 420.714 367.189 428.958 372.006C429.786 372.48 430.675 372.962 430.889 374.04C427.87 379.476 424.798 384.882 421.848 390.357C418.316 396.917 414.952 403.554 411.389 410.115C410.661 411.289 409.814 412.385 408.861 413.387C408.709 413.528 408.53 413.636 408.334 413.706C408.139 413.775 407.931 413.805 407.724 413.792C407.517 413.779 407.315 413.724 407.13 413.631C406.945 413.538 406.78 413.408 406.647 413.25C406.306 412.821 406.046 412.334 405.881 411.812C405.49 410.367 404.417 409.518 403.337 408.631C403.166 408.516 402.972 408.44 402.769 408.408C402.565 408.376 402.357 408.389 402.159 408.446C401.961 408.503 401.778 408.602 401.623 408.737C401.468 408.872 401.344 409.04 401.26 409.228C401.071 409.595 400.954 409.994 400.916 410.405C401.015 413.846 400.372 417.325 401.352 420.72C401.569 421.518 401.542 422.361 401.276 423.144C401.032 423.932 400.9 424.751 400.885 425.575C400.885 435.515 400.739 445.509 400.946 455.472C401.008 458.187 401.712 460.824 400.946 463.585C400.709 464.433 401.099 465.489 401.329 466.414C401.988 468.685 402.004 471.093 401.375 473.372C401.054 474.354 400.932 475.389 401.016 476.418C401.1 477.448 401.389 478.45 401.866 479.367L400.87 480.353L400.601 480.46L400.287 480.582L398.946 481.347C398.779 481.391 398.628 481.481 398.51 481.607L397.537 482.242L396.694 482.777L396.372 482.953C396.117 482.948 395.865 483.001 395.633 483.108C395.402 483.215 395.199 483.374 395.039 483.572C395 483.664 394.931 483.741 394.844 483.791C394.757 483.84 394.656 483.86 394.556 483.847L394.464 483.908C391.759 485.865 388.854 487.531 385.799 488.878L385.032 489.406C385.027 489.448 385.013 489.488 384.991 489.525C384.969 489.561 384.94 489.592 384.906 489.616C384.871 489.641 384.832 489.658 384.79 489.666C384.749 489.675 384.706 489.675 384.665 489.666L384.381 489.842L383.025 490.492L382.795 490.584L381.493 491.348C381.275 491.406 381.085 491.539 380.956 491.723L380.06 492.235L379.186 492.793C379.175 492.833 379.156 492.87 379.13 492.902C379.104 492.934 379.071 492.96 379.035 492.98C378.998 492.999 378.958 493.011 378.917 493.014C378.876 493.018 378.835 493.013 378.795 493L378.619 493.092C378.139 493.626 377.479 493.966 376.765 494.047C375.443 491.76 374.825 489.136 374.987 486.5C375.11 478.854 375.026 471.208 375.033 463.608C374.931 461.804 375.128 459.995 375.616 458.255C376.046 456.637 376.028 454.932 375.562 453.323C374.699 449.547 374.712 445.624 375.6 441.854C375.969 440.369 376.005 438.821 375.708 437.32C374.663 431.884 374.645 426.301 375.654 420.858C375.831 420.188 375.831 419.485 375.654 418.816C374.773 416.667 375.148 414.435 375.033 412.24C374.842 408.517 375.531 404.755 374.528 401.069C374.447 400.661 374.487 400.239 374.643 399.853C375.24 398.232 375.026 396.558 375.026 394.906C375.026 386.021 375.026 377.144 375.026 368.267C375.026 365.904 375.095 363.564 373.785 361.385C373.467 360.767 373.326 360.074 373.378 359.382C373.447 357.478 372.482 356.002 371.731 354.351C370.413 351.46 368.536 348.907 367.073 346.1C365.893 343.868 365.142 341.069 362.483 339.838Z" fill="black"/>
<path d="M463.714 544.648C469.875 544.246 476.048 545.201 481.797 547.447C489.98 550.712 494.125 556.951 495.128 565.492C495.159 565.907 495.159 566.323 495.128 566.738C495.075 567.9 494.493 568.696 493.428 568.726C490.646 568.795 487.873 568.78 485.091 568.726C484.669 568.734 484.257 568.597 483.924 568.338C483.591 568.079 483.356 567.714 483.26 567.304C482.915 566.256 482.639 565.171 482.226 564.146C481.599 562.451 480.578 560.929 479.246 559.706C477.913 558.482 476.309 557.593 474.564 557.111C471.612 556.298 468.562 555.899 465.5 555.926C461.883 555.888 458.267 555.758 454.735 556.737C453.533 557.069 452.355 557.483 451.21 557.976C448.475 559.138 447.302 561.378 447.096 564.207C446.912 566.685 447.862 568.497 450.222 569.498C453.578 570.845 457.106 571.718 460.703 572.09C467.185 572.855 473.621 573.964 480.042 575.149C483.6 575.823 487.023 577.07 490.179 578.842C492.296 579.925 494.091 581.544 495.384 583.537C496.677 585.529 497.424 587.826 497.55 590.197C497.665 591.573 497.649 592.965 497.665 594.349C497.726 601.23 494.324 606.154 488.807 609.886C485.16 612.363 480.992 613.533 476.77 614.305C467.023 616.139 456.97 615.516 447.525 612.493C442.161 610.765 437.564 607.63 434.714 602.469C432.992 599.279 432.149 595.691 432.27 592.07C432.27 590.495 433.036 589.715 434.522 589.669C436.89 589.585 439.25 589.608 441.61 589.669C442.245 589.639 442.868 589.849 443.355 590.257C443.842 590.665 444.157 591.242 444.238 591.871C444.452 592.812 444.713 593.752 445.004 594.685C446.322 599.326 449.662 601.865 454.198 602.752C461.714 604.263 469.454 604.284 476.977 602.813C481.574 601.911 484.471 599.074 485.076 594.983C485.505 592.047 484.381 589.888 481.705 588.507C479.214 587.262 476.525 586.458 473.759 586.129C467.706 585.296 461.638 584.6 455.593 583.674C452.849 583.248 450.132 582.664 447.456 581.924C444.771 581.146 442.266 579.847 440.085 578.1C437.931 576.538 436.322 574.339 435.488 571.815C433.319 565.01 433.955 558.656 438.629 553.044C440.518 550.813 442.9 549.049 445.586 547.89C451.273 545.348 457.497 544.235 463.714 544.648Z" fill="black"/>
<path d="M310.736 416.39C312.736 419.853 314.767 423.271 316.72 426.796C319.698 432.103 322.651 437.43 325.578 442.777C327.876 447.02 330.113 451.325 332.473 455.554C336.22 462.344 340.036 469.087 343.813 475.862C344.487 477.07 345.077 478.332 345.736 479.548C349.567 486.597 353.398 493.655 357.344 500.666C357.966 501.568 358.309 502.631 358.333 503.725C356.448 504.153 354.816 503.541 353.191 502.601C342.975 496.678 332.759 490.775 322.543 484.892C313.528 479.708 304.497 474.537 295.451 469.378C292.57 467.726 289.674 466.075 286.823 464.362C285.659 463.659 284.333 463.055 283.896 461.564C284.663 460.394 285.429 459.27 286.08 458.046C288.632 453.137 291.62 448.481 294.286 443.626C298.73 435.521 303.925 427.836 308.3 419.678C309.029 418.523 309.844 417.424 310.736 416.39Z" fill="black"/>
<path d="M401.837 479.39C401.361 478.474 401.072 477.471 400.988 476.442C400.904 475.413 401.026 474.377 401.347 473.396C401.975 471.117 401.959 468.708 401.301 466.438C401.071 465.512 400.68 464.457 400.918 463.608C401.684 460.871 400.994 458.21 400.918 455.496C400.711 445.556 400.826 435.57 400.857 425.599C400.872 424.774 401.003 423.956 401.247 423.168C401.514 422.385 401.54 421.541 401.324 420.744C400.343 417.349 400.987 413.862 400.887 410.429C400.926 410.018 401.043 409.618 401.232 409.251C401.316 409.064 401.439 408.896 401.595 408.761C401.75 408.626 401.933 408.527 402.131 408.47C402.329 408.413 402.537 408.4 402.74 408.432C402.944 408.464 403.138 408.54 403.308 408.655C404.389 409.519 405.461 410.391 405.852 411.836C406.017 412.358 406.277 412.845 406.618 413.273C406.752 413.432 406.916 413.562 407.101 413.655C407.287 413.748 407.489 413.803 407.696 413.815C407.903 413.828 408.111 413.799 408.306 413.73C408.501 413.66 408.68 413.552 408.833 413.411C409.785 412.409 410.633 411.313 411.361 410.138C414.893 403.578 418.257 396.941 421.82 390.381C424.77 384.906 427.842 379.5 430.861 374.063C431.245 374.224 431.587 374.47 431.86 374.783C432.134 375.095 432.332 375.467 432.439 375.868C432.959 377.589 433.217 379.377 433.205 381.174C433.159 406.071 433.139 430.972 433.144 455.878C433.144 456.429 433.144 456.987 433.144 457.537C432.945 460.168 431.941 462.347 429.581 463.739C427.083 465.214 424.593 466.713 422.065 468.158C416.293 471.436 410.513 474.703 404.726 477.96C404.591 477.947 404.455 477.981 404.342 478.057C404.229 478.132 404.145 478.244 404.105 478.373C404.069 478.466 404.005 478.545 403.921 478.599C403.837 478.653 403.737 478.678 403.638 478.672C403.4 478.635 403.156 478.677 402.944 478.79C402.731 478.903 402.561 479.081 402.458 479.299C402.435 479.374 402.387 479.439 402.321 479.482C402.255 479.525 402.176 479.544 402.098 479.536L401.837 479.39Z" fill="black"/>
<path d="M362.486 339.841C365.145 341.072 365.896 343.87 367.083 346.095C368.547 348.902 370.424 351.448 371.742 354.346C372.508 355.997 373.458 357.473 373.389 359.377C373.337 360.069 373.477 360.763 373.795 361.38C375.105 363.529 375.036 365.869 375.036 368.262C375.036 377.139 375.036 386.016 375.036 394.901C375.036 396.553 375.251 398.227 374.653 399.848C374.498 400.234 374.458 400.656 374.538 401.064C375.542 404.75 374.852 408.512 375.044 412.235C375.159 414.43 374.784 416.663 375.665 418.811C375.841 419.48 375.841 420.184 375.665 420.853C374.656 426.296 374.674 431.879 375.718 437.315C376.016 438.816 375.979 440.364 375.611 441.849C374.722 445.619 374.709 449.543 375.573 453.319C376.038 454.927 376.057 456.632 375.626 458.25C375.139 459.99 374.942 461.799 375.044 463.603C375.044 471.249 375.121 478.895 374.998 486.496C374.835 489.131 375.454 491.755 376.776 494.042C372.257 497.174 367.482 499.921 362.501 502.254C362.325 498.814 362.999 495.373 362.065 491.924C361.993 491.382 362.042 490.831 362.21 490.311C362.745 488.012 362.655 485.613 361.95 483.361C361.516 481.887 361.567 480.314 362.095 478.872C362.721 476.738 362.742 474.473 362.157 472.327C361.559 469.811 361.39 454.909 362.057 452.493C362.394 451.246 362.655 450.077 362.057 448.868C361.199 447.033 362.716 445.428 362.547 443.608C362.394 441.964 361.237 440.45 361.842 438.745C363.651 433.668 363.329 428.399 363.329 423.162C363.329 408.063 363.329 392.962 363.329 377.858C363.329 375.663 363.674 373.431 362.892 371.267C362.773 370.873 362.773 370.453 362.892 370.059C363.957 366.167 363.306 362.367 362.226 358.628C361.819 357.244 361.528 355.967 362.172 354.613C362.233 354.488 362.282 354.358 362.317 354.223C362.969 352.128 361.651 350.102 361.95 348.106C362.249 346.111 362.861 344.092 361.95 342.043C361.737 341.678 361.674 341.245 361.774 340.834C361.874 340.424 362.129 340.068 362.486 339.841Z" fill="black"/>
<path d="M310.735 416.395C309.839 417.436 309.022 418.543 308.291 419.706C303.916 427.864 298.721 435.549 294.277 443.654C291.611 448.509 288.623 453.166 286.071 458.074C285.435 459.29 284.616 460.422 283.888 461.592C283.345 461.055 282.918 460.413 282.632 459.706C282.346 458.998 282.208 458.24 282.225 457.478C282.225 456.507 282.225 455.536 282.225 454.565C282.225 430.178 282.225 405.795 282.225 381.413C282.225 380.718 282.225 380.029 282.225 379.334C282.225 376.665 283.168 374.478 285.52 373.025C286.009 373.055 286.481 373.216 286.886 373.492C287.291 373.768 287.613 374.149 287.818 374.593C289.558 377.575 291.473 380.473 293.044 383.547C296.017 389.342 299.235 395.016 302.437 400.651C305.295 405.828 307.962 411.142 310.735 416.395Z" fill="black"/>
<path d="M742.892 417.709C742.892 419.918 742.892 422.128 742.892 424.345C742.944 424.897 742.831 425.453 742.568 425.941C742.305 426.429 741.903 426.829 741.413 427.09C737.572 429.287 733.741 431.49 729.92 433.697C729.453 433.998 728.909 434.158 728.353 434.158C727.797 434.158 727.253 433.998 726.786 433.697C723.07 431.548 719.362 429.407 715.623 427.305C715.007 426.99 714.5 426.498 714.167 425.893C713.834 425.288 713.69 424.597 713.753 423.91C713.815 419.895 713.83 415.889 713.753 411.882C713.665 411.129 713.814 410.368 714.181 409.704C714.548 409.04 715.114 408.508 715.799 408.181C719.201 406.323 722.557 404.358 725.882 402.393C726.554 401.905 727.358 401.629 728.189 401.604C729.02 401.578 729.84 401.802 730.541 402.248C734.226 404.435 737.965 406.53 741.689 408.655C742.061 408.847 742.372 409.139 742.584 409.499C742.797 409.859 742.904 410.272 742.892 410.689C742.892 413.037 742.892 415.384 742.892 417.739V417.709Z" fill="black"/>
<path d="M545.689 550.414C538.977 550.368 533.338 544.893 533.353 538.317C533.304 536.646 533.598 534.983 534.219 533.429C534.839 531.876 535.772 530.466 536.959 529.287C538.147 528.108 539.564 527.184 541.123 526.572C542.683 525.961 544.351 525.675 546.026 525.732C553.397 525.984 558.285 531.688 558.185 538.455C558.086 545.222 552.01 550.651 545.689 550.414ZM545.865 548.12C550.807 548.617 556.163 543.532 555.986 537.775C555.863 535.139 554.743 532.647 552.852 530.803C550.961 528.958 548.44 527.897 545.796 527.834C540.134 527.949 535.23 532.583 535.391 538.073C535.521 542.913 539.643 548.609 545.88 548.151L545.865 548.12Z" fill="black"/>
<path d="M545.883 548.146C539.661 548.605 535.539 542.909 535.409 538.076C535.248 532.586 540.151 527.953 545.814 527.838C548.457 527.901 550.979 528.961 552.87 530.806C554.761 532.651 555.881 535.142 556.004 537.778C556.165 543.536 550.809 548.643 545.883 548.146ZM541.132 538.053C541.132 539.713 541.132 541.372 541.132 543.031C541.132 544.178 541.653 544.698 542.527 544.652C543.4 544.606 543.661 544.01 543.714 543.268C543.768 542.526 543.714 541.884 543.783 541.196C543.765 540.988 543.792 540.779 543.862 540.583C543.932 540.386 544.044 540.207 544.189 540.057C544.334 539.907 544.51 539.79 544.704 539.713C544.898 539.637 545.107 539.603 545.316 539.613C546.618 539.537 547.384 539.911 547.614 540.89C547.844 541.869 547.844 542.809 548.043 543.75C548.114 543.943 548.222 544.12 548.363 544.27C548.503 544.42 548.672 544.541 548.86 544.624C549.049 544.708 549.251 544.752 549.457 544.756C549.663 544.759 549.868 544.721 550.058 544.644C550.327 544.577 550.558 544.407 550.702 544.171C550.845 543.935 550.889 543.651 550.825 543.383C550.732 542.281 550.516 541.194 550.181 540.141C549.904 539.535 549.778 538.871 549.811 538.206C549.844 537.541 550.037 536.893 550.372 536.318C551.614 533.886 550.135 531.546 547.446 531.218C546.755 531.159 546.062 531.138 545.369 531.156C541.178 531.11 541.178 531.11 541.147 535.117C541.117 536.119 541.117 537.082 541.117 538.053H541.132Z" fill="white"/>
</svg>
