<svg width="900" height="900" viewBox="0 0 900 900" fill="none" xmlns="http://www.w3.org/2000/svg">
<rect width="900" height="900" fill="transparent"/>
<path d="M743.154 699.986C734.804 719.495 723.05 733.904 698.981 732.909C677.265 731.999 662.415 718.654 659.444 695.741C656.691 674.487 668.824 655.112 688.592 649.234C709.719 642.93 729.789 651.602 738.657 670.789C740.058 673.745 741.648 676.582 743.154 679.468V699.986ZM700.753 661.598C687.703 661.794 679.374 673.773 679.913 691.587C680.417 708.182 689.776 720.118 701.804 719.481C713.082 718.885 722.272 705.555 722.315 689.723C722.357 673.339 713.215 661.416 700.753 661.598Z" fill="black"/>
<path d="M232.356 376.095C232.454 261.1 327.624 165.874 442.338 166C558.573 166.119 655.662 262.018 655.907 376.97C656.145 489.807 557.886 586.918 442.955 587.45C328.114 587.955 232.257 491.755 232.356 376.095ZM443.34 562.33C545.417 561.56 632.006 475.412 630.843 375.773C629.674 274.648 543.414 190.034 441.869 190.392C340.555 190.749 255.948 276.799 256.663 378.743C257.356 478.389 343.49 563.08 443.34 562.33Z" fill="black"/>
<path d="M382.725 611.729H402.528V682.781C420.524 672.309 421.659 641.137 452.221 650.986C447.374 656.534 443.115 661.535 438.716 666.397C420.867 686.172 422.681 679.853 437 700.679C443.535 710.185 450.309 719.544 458.225 730.801C445.308 731.585 434.975 735.004 428.362 722.017C423.774 712.994 417.414 704.868 411.347 695.594C395.936 704.259 406.857 719.607 400.657 730.745H382.725V611.729Z" fill="black"/>
<path d="M259.03 732.727C235.157 732.727 218.338 715.488 218.275 690.872C218.212 665.234 236.061 647.042 261.062 647.266C284.676 647.476 302.027 665.388 301.978 689.513C301.936 715.228 284.578 732.692 259.03 732.727ZM238.793 690.242C238.793 706.458 247.787 719.046 259.647 719.467C271.506 719.887 281.551 706.157 281.516 689.639C281.481 673.121 272.298 661.346 259.801 661.619C247.304 661.892 238.744 673.486 238.793 690.242Z" fill="black"/>
<path d="M530.559 694.943H476.859C475.353 709.996 483.653 715.481 495.142 717.359C501.404 718.46 507.815 718.398 514.055 717.177C523.568 715.117 526.895 718.192 525.2 730.423C513.348 731.018 500.795 733.225 488.634 731.915C466.407 729.47 453.28 708.406 456.964 684.001C460.558 660.184 478.575 644.92 500.213 647.329C521.095 649.648 532.752 666.979 530.559 694.943ZM512.087 681.388C511.94 668.036 507.141 660.793 494.855 661.073C482.393 661.361 477.216 668.982 476.431 681.388H512.087Z" fill="black"/>
<path d="M158.691 715.488C166.669 716.931 173.864 719.523 180.82 718.99C185.023 718.682 190.466 714.304 192.315 710.339C193.303 708.238 188.434 702.416 185.1 699.551C181.905 696.805 177.261 695.769 173.296 693.877C163.377 689.149 155.784 682.361 157.017 670.347C158.34 657.388 167.111 650.033 179.152 648.408C187.979 647.196 197.218 649.024 207.873 649.585C206.752 655.651 206.038 659.546 205.204 664.05C199.6 663.097 194.739 661.192 190.241 661.815C185.548 662.46 181.191 665.542 176.68 667.567C179.538 671.931 181.758 676.995 185.464 680.456C188.49 683.293 193.401 684.021 197.288 686.06C207.285 691.236 213.316 699.369 211.894 710.823C210.472 722.276 202.787 729.484 191.817 731.312C183.327 732.713 174.305 732.286 165.703 731.382C156.134 730.388 153.332 724.791 158.691 715.488Z" fill="black"/>
<path d="M586.677 720.749C584.302 724.658 581.395 732.132 579.672 731.866C570.159 730.465 559.855 728.777 552.03 723.754C547.876 721.085 547.126 711.523 546.713 704.96C545.929 692.351 546.482 679.636 546.482 669.276C541.578 663.581 536.815 659.889 535.071 655.105C534.475 653.459 541.375 649.087 546.125 644.814C546.279 642.012 546.552 637.2 546.944 630.237L564.023 625.761C564.723 633.571 565.424 640.471 566.124 648.03L584.435 649.991V661.479C563.749 666.103 563.868 666.103 565.122 698.004C565.606 710.234 568.548 719.614 584.736 717.099L586.677 720.749Z" fill="black"/>
<path d="M370.109 716.217C370.901 720.77 371.552 724.49 372.211 728.125C350.922 737.232 328.492 733.281 316.955 718.774C305.418 704.266 304.969 680.947 315.785 665.297C326.937 649.186 348.197 643.624 371.825 651.287C371.293 655.133 370.739 659.189 370.123 663.693C338.481 659.091 322.489 670.215 331.056 703.061C334.327 715.762 346.502 719.026 370.109 716.217Z" fill="black"/>
<path d="M628.973 649.977H646.289V730.499H628.973V649.977Z" fill="black"/>
<path d="M605.394 702.529C610.802 711.321 616.847 716.925 615.831 720.532C614.43 725.352 607.629 728.637 603.145 732.574C599.727 728.224 593.78 723.958 593.626 719.495C593.471 715.222 599.349 710.746 605.394 702.529Z" fill="black"/>
<path d="M653.616 625.859C645.792 630.384 641.204 635.106 636.881 634.868C633.498 634.686 630.451 628.353 627.25 624.752C631.137 621.411 634.738 615.954 638.99 615.401C642.366 614.959 646.534 620.5 653.616 625.859Z" fill="black"/>
<path d="M355.714 505.8C379.384 470.074 402.872 434.18 426.976 398.721C429.491 395.022 435.508 391.891 440.047 391.716C458.057 390.917 476.123 391.387 495.947 394.581L357.829 507.677L355.714 505.8Z" fill="black"/>
<path d="M533.704 252.75C510.266 288.132 486.953 323.599 463.213 358.785C460.803 362.351 455.942 366.343 452.068 366.491C432.79 367.282 413.463 366.848 389.926 366.848L531.792 250.81L533.704 252.75Z" fill="black"/>
</svg>
