<svg width="370" height="83" viewBox="0 0 370 83" fill="none" xmlns="http://www.w3.org/2000/svg">
<path fill-rule="evenodd" clip-rule="evenodd" d="M215.446 15.8229C212.86 14.398 209.807 13.6855 206.286 13.6855H194.509V46.2289H205.585C208.95 46.2289 212.003 45.524 214.745 44.1145C217.486 42.705 219.621 40.7512 221.148 38.2539C222.674 35.7566 223.438 32.9909 223.438 29.9572C223.438 26.9235 222.752 24.1656 221.381 21.6835C220.01 19.2013 218.032 17.2478 215.446 15.8229ZM204.884 42.0921C207.407 42.0921 209.721 41.6094 211.824 40.6441C213.927 39.6789 215.594 38.2923 216.824 36.4842C218.055 34.6762 218.671 32.5006 218.671 29.9572C218.671 26.2799 217.51 23.3382 215.189 21.1319C212.867 18.9256 209.791 17.8224 205.959 17.8224H198.995V42.092L204.884 42.0921Z" fill="black"/>
<path d="M230.295 12.6755C231.133 12.6755 231.855 12.9769 232.461 13.5796C233.067 14.1822 233.369 14.9008 233.369 15.7352C233.369 16.6006 233.059 17.3269 232.438 17.9141C231.817 18.5013 231.102 18.7949 230.295 18.7949C229.425 18.7949 228.695 18.5013 228.105 17.9141C227.515 17.3269 227.22 16.6006 227.22 15.7352C227.22 14.8698 227.531 14.1435 228.152 13.5563C228.773 12.9691 229.487 12.6755 230.295 12.6755Z" fill="black"/>
<path d="M232.391 23.616V45.5898H228.199V23.616H232.391Z" fill="black"/>
<path fill-rule="evenodd" clip-rule="evenodd" d="M253.606 24.4776C252.273 23.8259 250.833 23.5001 249.287 23.5001C246.105 23.5311 243.491 24.6019 241.445 26.712C239.399 28.8221 238.361 31.6463 238.331 35.1841C238.361 38.3494 239.407 41.0105 241.468 43.1673C243.529 45.3242 246.135 46.4025 249.287 46.4025C250.772 46.4025 252.205 46.0767 253.583 45.425C254.962 44.7733 256.016 43.7957 256.743 42.4924H256.879V45.8439C256.879 48.1714 256.235 50.0102 254.947 51.3601C253.659 52.7101 251.727 53.385 249.151 53.385C246.15 53.385 243.574 52.1903 241.422 49.8007L238.649 53.3384C241.226 55.9763 244.741 57.2952 249.196 57.2952C252.712 57.2642 255.546 56.2092 257.698 54.1298C259.85 52.0504 260.941 49.3818 260.971 46.1232V24.0587H256.879V27.2241H256.788C256 26.0448 254.94 25.1293 253.606 24.4776ZM242.695 35.091C242.695 37.2944 243.324 39.0634 244.582 40.3976C245.84 41.732 247.575 42.4303 249.787 42.4924C251.969 42.4924 253.689 41.8252 254.947 40.4908C256.205 39.1563 256.849 37.3563 256.879 35.091C256.879 32.7946 256.235 30.948 254.947 29.5516C253.659 28.1551 251.924 27.4413 249.742 27.4103C247.59 27.4103 245.878 28.1396 244.605 29.5981C243.332 31.0567 242.695 32.8876 242.695 35.091Z" fill="black"/>
<path d="M269.788 13.5001C270.627 13.5001 271.349 13.8015 271.955 14.4041C272.56 15.0068 272.863 15.7253 272.863 16.5598C272.863 17.4251 272.552 18.1514 271.931 18.7387C271.31 19.3259 270.596 19.6195 269.788 19.6195C268.919 19.6195 268.189 19.3259 267.599 18.7387C267.009 18.1514 266.714 17.4251 266.714 16.5598C266.714 15.6944 267.024 14.9681 267.646 14.3809C268.267 13.7937 268.981 13.5001 269.788 13.5001Z" fill="black"/>
<path d="M271.884 24.4406V46.4144H267.692V24.4406H271.884Z" fill="black"/>
<path d="M298.144 19.4622L290.19 46.0301H285.493L275.865 13.4867H280.516L287.772 39.503H287.865L295.632 13.4867H300.748L308.516 39.503H308.609L315.865 13.4867H320.516L310.934 46.0301H306.237L298.237 19.4622H298.144Z" fill="black"/>
<path fill-rule="evenodd" clip-rule="evenodd" d="M338.913 26.5991C337.048 24.5331 334.435 23.5001 331.075 23.5001C327.746 23.5605 325.025 24.6538 322.914 26.7801C320.802 28.9065 319.746 31.5682 319.746 34.7652C319.808 38.0827 320.864 40.7898 322.914 42.8859C324.964 44.9821 327.669 46.0301 331.029 46.0301C335.16 46.0301 338.397 44.5673 340.74 41.6418L337.595 39.2893C335.869 41.4307 333.865 42.5014 331.584 42.5014C329.519 42.4712 327.769 41.8605 326.335 40.6691C324.902 39.4777 324.185 38.0074 324.185 36.2581H341.757V35.1271C341.726 31.5078 340.778 28.6652 338.913 26.5991ZM337.318 33.0008C337.256 30.98 336.671 29.4342 335.561 28.3635C334.451 27.2929 332.925 26.7575 330.983 26.7575C329.688 26.7575 328.524 27.0666 327.492 27.6849C326.459 28.3033 325.65 29.1025 325.064 30.0827C324.478 31.0629 324.185 32.0356 324.185 33.0008H337.318Z" fill="black"/>
<path fill-rule="evenodd" clip-rule="evenodd" d="M350.364 27.4392L350.364 11.1822H346.159V46.2973H350.364V43.1389H350.458C351.268 44.3155 352.381 45.229 353.799 45.8793C355.216 46.5296 356.688 46.8547 358.214 46.8547C361.61 46.7928 364.327 45.6782 366.368 43.5105C368.408 41.3427 369.428 38.6025 369.428 35.289C369.428 31.9447 368.385 29.181 366.297 26.9979C364.21 24.8149 361.5 23.7233 358.167 23.7233C356.61 23.7233 355.122 24.0562 353.705 24.7219C352.288 25.3877 351.205 26.2935 350.458 27.4392H350.364ZM350.364 35.289C350.364 37.5804 351.026 39.4152 352.35 40.7932C353.674 42.1711 355.442 42.8911 357.653 42.953C359.865 42.953 361.633 42.2408 362.956 40.8164C364.281 39.3919 364.942 37.5494 364.942 35.289C364.942 33.0286 364.288 31.1939 362.98 29.7848C361.672 28.3758 359.88 27.656 357.607 27.625C355.395 27.625 353.635 28.3449 352.327 29.7848C351.018 31.2247 350.364 33.0595 350.364 35.289Z" fill="black"/>
<path d="M159.496 17.0877C156.821 14.25 152.731 12.8313 147.226 12.8313C142.218 12.8313 138.089 14.4816 134.838 17.7817C131.588 21.0817 129.963 25.1687 129.963 30.0418C129.963 35.0999 131.611 39.233 134.908 42.4407C138.206 45.6484 142.451 47.2522 147.646 47.2522C149.792 47.2522 152.008 46.99 154.294 46.4657C156.58 45.9414 158.532 45.2012 160.149 44.245V28.0987H148.345V32.2625H155.67V41.3766C153.68 42.5178 150.974 43.0884 147.552 43.0884C143.944 43.0884 140.904 41.8545 138.431 39.3872C135.958 36.9199 134.722 33.8047 134.722 30.0418C134.722 26.3096 135.888 23.2023 138.221 20.7195C140.554 18.2366 143.54 16.9952 147.179 16.9952C150.818 16.9952 153.866 18.1518 156.324 20.465L159.496 17.0877Z" fill="black"/>
<path fill-rule="evenodd" clip-rule="evenodd" d="M177.329 23.8976C180.648 23.8976 183.462 24.991 185.769 27.1776C188.077 29.3641 189.247 32.0261 189.278 35.1626C189.278 38.3295 188.124 40.9838 185.817 43.1251C183.509 45.2663 180.68 46.3672 177.329 46.4276C174.042 46.4276 171.244 45.3419 168.937 43.1703C166.629 40.9987 165.444 38.3295 165.38 35.1626C165.38 32.0562 166.526 29.417 168.818 27.2455C171.11 25.0739 173.947 23.958 177.329 23.8976ZM171.971 40.5237C170.612 39.1513 169.932 37.3644 169.932 35.1626C169.932 33.0211 170.596 31.2417 171.924 29.8242C173.251 28.4067 175.037 27.6979 177.282 27.6979C179.589 27.728 181.407 28.4292 182.735 29.8016C184.062 31.174 184.726 32.9609 184.726 35.1626C184.694 37.3946 184.015 39.1966 182.687 40.5689C181.36 41.9412 179.573 42.6274 177.329 42.6274C175.116 42.5972 173.33 41.8961 171.971 40.5237Z" fill="black"/>
<path d="M75.3559 46.7564C77.8377 47.2029 79.513 49.5882 78.7867 52.0031C76.7419 58.8015 72.915 64.9617 67.6671 69.8238C61.2981 75.7246 53.1821 79.3929 44.5446 80.2747C35.9071 81.1566 27.2172 79.2041 19.7872 74.7121C12.3571 70.2201 6.5904 63.4325 3.3578 55.3744C0.125207 47.3162 -0.397714 38.425 1.86801 30.0435C4.13373 21.6619 9.06506 14.2452 15.9173 8.91319C22.7696 3.5812 31.1707 0.623513 39.852 0.486777C47.0051 0.374111 54.0284 2.1817 60.2047 5.68216C62.3985 6.92555 62.8362 9.80731 61.351 11.8453C59.8658 13.8832 57.0212 14.2969 54.7866 13.1283C50.2473 10.7544 45.1655 9.53611 39.9958 9.61754C33.2964 9.72306 26.8133 12.0055 21.5254 16.1202C16.2375 20.2349 12.4319 25.9585 10.6835 32.4265C8.93502 38.8946 9.33856 45.7559 11.8332 51.9744C14.3278 58.1929 18.778 63.4309 24.5117 66.8974C30.2455 70.3639 36.9515 71.8706 43.6171 71.1901C50.2827 70.5096 56.5458 67.6787 61.4608 63.1251C65.2535 59.6111 68.0845 55.2186 69.7248 50.3657C70.5322 47.9768 72.874 46.3098 75.3559 46.7564Z" fill="black"/>
<path d="M58.7808 48.5227C61.1119 49.5928 62.166 52.3832 60.6915 54.482C58.9598 56.9468 56.7981 59.0957 54.2981 60.8194C50.5174 63.4261 46.1032 64.964 41.5212 65.2706C36.9392 65.5773 32.3594 64.6415 28.2651 62.5618C25.5576 61.1867 23.1288 59.345 21.0842 57.133C19.3431 55.2494 20.016 52.3434 22.1837 50.9722C24.3514 49.6009 27.1882 50.3157 29.1158 52.0079C30.1305 52.8987 31.2569 53.6633 32.4715 54.2802C35.0751 55.6026 37.9873 56.1977 40.9009 56.0027C43.8145 55.8077 46.6214 54.8298 49.0255 53.1722C50.1471 52.3989 51.1616 51.4911 52.0485 50.473C53.7334 48.539 56.4496 47.4526 58.7808 48.5227Z" fill="black"/>
<path d="M141.743 60.2022V61.3622H137.863V74.1822H136.463V61.3622H132.563V60.2022H141.743ZM145.354 65.2022C145.66 64.5222 146.127 63.9955 146.754 63.6222C147.394 63.2489 148.174 63.0622 149.094 63.0622V64.5222H148.714C147.7 64.5222 146.887 64.7955 146.274 65.3422C145.66 65.8889 145.354 66.8022 145.354 68.0822V74.1822H143.954V63.2622H145.354V65.2022ZM150.56 68.7022C150.56 67.5822 150.78 66.6022 151.22 65.7622C151.673 64.9089 152.293 64.2555 153.08 63.8022C153.88 63.3355 154.78 63.1022 155.78 63.1022C156.82 63.1022 157.713 63.3422 158.46 63.8222C159.22 64.3022 159.766 64.9155 160.1 65.6622V63.2622H161.5V74.1822H160.1V71.7622C159.753 72.5089 159.2 73.1289 158.44 73.6222C157.693 74.1022 156.8 74.3422 155.76 74.3422C154.773 74.3422 153.88 74.1089 153.08 73.6422C152.293 73.1755 151.673 72.5155 151.22 71.6622C150.78 70.8089 150.56 69.8222 150.56 68.7022ZM160.1 68.7222C160.1 67.8422 159.92 67.0689 159.56 66.4022C159.2 65.7355 158.706 65.2222 158.08 64.8622C157.466 64.5022 156.786 64.3222 156.04 64.3222C155.266 64.3222 154.573 64.4955 153.96 64.8422C153.346 65.1889 152.86 65.6955 152.5 66.3622C152.153 67.0155 151.98 67.7955 151.98 68.7022C151.98 69.5955 152.153 70.3822 152.5 71.0622C152.86 71.7289 153.346 72.2422 153.96 72.6022C154.573 72.9489 155.266 73.1222 156.04 73.1222C156.786 73.1222 157.466 72.9422 158.08 72.5822C158.706 72.2222 159.2 71.7089 159.56 71.0422C159.92 70.3755 160.1 69.6022 160.1 68.7222ZM169.816 63.0622C171.122 63.0622 172.189 63.4689 173.016 64.2822C173.842 65.0822 174.256 66.2489 174.256 67.7822V74.1822H172.876V67.9422C172.876 66.7555 172.576 65.8489 171.976 65.2222C171.389 64.5955 170.582 64.2822 169.556 64.2822C168.502 64.2822 167.662 64.6155 167.036 65.2822C166.409 65.9489 166.096 66.9289 166.096 68.2222V74.1822H164.696V63.2622H166.096V65.1222C166.442 64.4555 166.942 63.9489 167.596 63.6022C168.249 63.2422 168.989 63.0622 169.816 63.0622ZM181.112 74.3422C179.859 74.3422 178.832 74.0555 178.032 73.4822C177.245 72.8955 176.805 72.1022 176.712 71.1022H178.152C178.219 71.7155 178.505 72.2155 179.012 72.6022C179.532 72.9755 180.225 73.1622 181.092 73.1622C181.852 73.1622 182.445 72.9822 182.872 72.6222C183.312 72.2622 183.532 71.8155 183.532 71.2822C183.532 70.9089 183.412 70.6022 183.172 70.3622C182.932 70.1222 182.625 69.9355 182.252 69.8022C181.892 69.6555 181.399 69.5022 180.772 69.3422C179.959 69.1289 179.299 68.9155 178.792 68.7022C178.285 68.4889 177.852 68.1755 177.492 67.7622C177.145 67.3355 176.972 66.7689 176.972 66.0622C176.972 65.5289 177.132 65.0355 177.452 64.5822C177.772 64.1289 178.225 63.7689 178.812 63.5022C179.399 63.2355 180.065 63.1022 180.812 63.1022C181.985 63.1022 182.932 63.4022 183.652 64.0022C184.372 64.5889 184.759 65.4022 184.812 66.4422H183.412C183.372 65.8022 183.119 65.2889 182.652 64.9022C182.199 64.5022 181.572 64.3022 180.772 64.3022C180.065 64.3022 179.492 64.4689 179.052 64.8022C178.612 65.1355 178.392 65.5489 178.392 66.0422C178.392 66.4689 178.519 66.8222 178.772 67.1022C179.039 67.3689 179.365 67.5822 179.752 67.7422C180.139 67.8889 180.659 68.0555 181.312 68.2422C182.099 68.4555 182.725 68.6622 183.192 68.8622C183.659 69.0622 184.059 69.3555 184.392 69.7422C184.725 70.1289 184.899 70.6422 184.912 71.2822C184.912 71.8689 184.752 72.3955 184.432 72.8622C184.112 73.3155 183.665 73.6755 183.092 73.9422C182.519 74.2089 181.859 74.3422 181.112 74.3422ZM191.847 64.4422H189.307V74.1822H187.907V64.4422H186.387V63.2622H187.907V62.5022C187.907 61.3155 188.207 60.4422 188.807 59.8822C189.421 59.3222 190.407 59.0422 191.767 59.0422V60.2422C190.861 60.2422 190.221 60.4155 189.847 60.7622C189.487 61.1089 189.307 61.6889 189.307 62.5022V63.2622H191.847V64.4422ZM198.831 74.3422C197.805 74.3422 196.878 74.1155 196.051 73.6622C195.238 73.1955 194.591 72.5422 194.111 71.7022C193.645 70.8489 193.411 69.8555 193.411 68.7222C193.411 67.5889 193.651 66.6022 194.131 65.7622C194.611 64.9089 195.265 64.2555 196.091 63.8022C196.918 63.3355 197.845 63.1022 198.871 63.1022C199.898 63.1022 200.825 63.3355 201.651 63.8022C202.491 64.2555 203.145 64.9089 203.611 65.7622C204.091 66.6022 204.331 67.5889 204.331 68.7222C204.331 69.8422 204.091 70.8289 203.611 71.6822C203.131 72.5355 202.471 73.1955 201.631 73.6622C200.791 74.1155 199.858 74.3422 198.831 74.3422ZM198.831 73.1222C199.551 73.1222 200.218 72.9622 200.831 72.6422C201.445 72.3089 201.938 71.8155 202.311 71.1622C202.698 70.4955 202.891 69.6822 202.891 68.7222C202.891 67.7622 202.705 66.9555 202.331 66.3022C201.958 65.6355 201.465 65.1422 200.851 64.8222C200.238 64.4889 199.571 64.3222 198.851 64.3222C198.131 64.3222 197.465 64.4889 196.851 64.8222C196.238 65.1422 195.745 65.6355 195.371 66.3022C195.011 66.9555 194.831 67.7622 194.831 68.7222C194.831 69.6822 195.011 70.4955 195.371 71.1622C195.745 71.8155 196.231 72.3089 196.831 72.6422C197.445 72.9622 198.111 73.1222 198.831 73.1222ZM208.283 65.2022C208.59 64.5222 209.057 63.9955 209.683 63.6222C210.323 63.2489 211.103 63.0622 212.023 63.0622V64.5222H211.643C210.63 64.5222 209.817 64.7955 209.203 65.3422C208.59 65.8889 208.283 66.8022 208.283 68.0822V74.1822H206.883V63.2622H208.283V65.2022ZM227.129 63.0622C228.409 63.0622 229.449 63.4689 230.249 64.2822C231.063 65.0822 231.469 66.2489 231.469 67.7822V74.1822H230.089V67.9422C230.089 66.7555 229.803 65.8489 229.229 65.2222C228.656 64.5955 227.876 64.2822 226.889 64.2822C225.863 64.2822 225.043 64.6222 224.429 65.3022C223.816 65.9822 223.509 66.9689 223.509 68.2622V74.1822H222.129V67.9422C222.129 66.7555 221.843 65.8489 221.269 65.2222C220.696 64.5955 219.909 64.2822 218.909 64.2822C217.883 64.2822 217.063 64.6222 216.449 65.3022C215.836 65.9822 215.529 66.9689 215.529 68.2622V74.1822H214.129V63.2622H215.529V65.1422C215.876 64.4622 216.369 63.9489 217.009 63.6022C217.649 63.2422 218.363 63.0622 219.149 63.0622C220.096 63.0622 220.923 63.2889 221.629 63.7422C222.349 64.1955 222.869 64.8622 223.189 65.7422C223.483 64.8755 223.983 64.2155 224.689 63.7622C225.409 63.2955 226.223 63.0622 227.129 63.0622ZM248.247 60.2022V61.3622H244.367V74.1822H242.967V61.3622H239.067V60.2022H248.247ZM255.237 74.3422C254.211 74.3422 253.284 74.1155 252.457 73.6622C251.644 73.1955 250.997 72.5422 250.517 71.7022C250.051 70.8489 249.817 69.8555 249.817 68.7222C249.817 67.5889 250.057 66.6022 250.537 65.7622C251.017 64.9089 251.671 64.2555 252.497 63.8022C253.324 63.3355 254.251 63.1022 255.277 63.1022C256.304 63.1022 257.231 63.3355 258.057 63.8022C258.897 64.2555 259.551 64.9089 260.017 65.7622C260.497 66.6022 260.737 67.5889 260.737 68.7222C260.737 69.8422 260.497 70.8289 260.017 71.6822C259.537 72.5355 258.877 73.1955 258.037 73.6622C257.197 74.1155 256.264 74.3422 255.237 74.3422ZM255.237 73.1222C255.957 73.1222 256.624 72.9622 257.237 72.6422C257.851 72.3089 258.344 71.8155 258.717 71.1622C259.104 70.4955 259.297 69.6822 259.297 68.7222C259.297 67.7622 259.111 66.9555 258.737 66.3022C258.364 65.6355 257.871 65.1422 257.257 64.8222C256.644 64.4889 255.977 64.3222 255.257 64.3222C254.537 64.3222 253.871 64.4889 253.257 64.8222C252.644 65.1422 252.151 65.6355 251.777 66.3022C251.417 66.9555 251.237 67.7622 251.237 68.7222C251.237 69.6822 251.417 70.4955 251.777 71.1622C252.151 71.8155 252.637 72.3089 253.237 72.6422C253.851 72.9622 254.517 73.1222 255.237 73.1222ZM276.958 60.2022V61.3622H273.078V74.1822H271.678V61.3622H267.778V60.2022H276.958ZM289.048 68.1622C289.048 68.6422 289.035 69.0089 289.008 69.2622H279.948C279.988 70.0889 280.188 70.7955 280.548 71.3822C280.908 71.9689 281.382 72.4155 281.968 72.7222C282.555 73.0155 283.195 73.1622 283.888 73.1622C284.795 73.1622 285.555 72.9422 286.168 72.5022C286.795 72.0622 287.208 71.4689 287.408 70.7222H288.888C288.622 71.7889 288.048 72.6622 287.168 73.3422C286.302 74.0089 285.208 74.3422 283.888 74.3422C282.862 74.3422 281.942 74.1155 281.128 73.6622C280.315 73.1955 279.675 72.5422 279.208 71.7022C278.755 70.8489 278.528 69.8555 278.528 68.7222C278.528 67.5889 278.755 66.5955 279.208 65.7422C279.662 64.8889 280.295 64.2355 281.108 63.7822C281.922 63.3289 282.848 63.1022 283.888 63.1022C284.928 63.1022 285.835 63.3289 286.608 63.7822C287.395 64.2355 287.995 64.8489 288.408 65.6222C288.835 66.3822 289.048 67.2289 289.048 68.1622ZM287.628 68.1222C287.642 67.3089 287.475 66.6155 287.128 66.0422C286.795 65.4689 286.335 65.0355 285.748 64.7422C285.162 64.4489 284.522 64.3022 283.828 64.3022C282.788 64.3022 281.902 64.6355 281.168 65.3022C280.435 65.9689 280.028 66.9089 279.948 68.1222H287.628ZM290.97 68.7222C290.97 67.5889 291.196 66.6022 291.65 65.7622C292.103 64.9089 292.73 64.2555 293.53 63.8022C294.33 63.3355 295.243 63.1022 296.27 63.1022C297.616 63.1022 298.723 63.4355 299.59 64.1022C300.47 64.7689 301.036 65.6755 301.29 66.8222H299.79C299.603 66.0355 299.196 65.4222 298.57 64.9822C297.956 64.5289 297.19 64.3022 296.27 64.3022C295.536 64.3022 294.876 64.4689 294.29 64.8022C293.703 65.1355 293.236 65.6355 292.89 66.3022C292.556 66.9555 292.39 67.7622 292.39 68.7222C292.39 69.6822 292.556 70.4955 292.89 71.1622C293.236 71.8289 293.703 72.3289 294.29 72.6622C294.876 72.9955 295.536 73.1622 296.27 73.1622C297.19 73.1622 297.956 72.9422 298.57 72.5022C299.196 72.0489 299.603 71.4222 299.79 70.6222H301.29C301.036 71.7422 300.47 72.6422 299.59 73.3222C298.71 74.0022 297.603 74.3422 296.27 74.3422C295.243 74.3422 294.33 74.1155 293.53 73.6622C292.73 73.1955 292.103 72.5422 291.65 71.7022C291.196 70.8489 290.97 69.8555 290.97 68.7222ZM309.075 63.0622C309.902 63.0622 310.642 63.2355 311.295 63.5822C311.962 63.9289 312.482 64.4622 312.855 65.1822C313.242 65.8889 313.435 66.7555 313.435 67.7822V74.1822H312.055V67.9422C312.055 66.7555 311.755 65.8489 311.155 65.2222C310.569 64.5955 309.762 64.2822 308.735 64.2822C307.682 64.2822 306.842 64.6155 306.215 65.2822C305.589 65.9489 305.275 66.9289 305.275 68.2222V74.1822H303.875V59.3822H305.275V65.1222C305.622 64.4689 306.129 63.9622 306.795 63.6022C307.475 63.2422 308.235 63.0622 309.075 63.0622Z" fill="black"/>
<path d="M74.3563 20.106C74.4045 19.8479 74.5414 19.6148 74.7434 19.4471C74.9454 19.2794 75.1996 19.1875 75.4622 19.1875C75.7247 19.1875 75.979 19.2794 76.1809 19.4471C76.3829 19.6148 76.5198 19.8479 76.568 20.106L77.7504 26.3587C77.8344 26.8033 78.0504 27.2122 78.3703 27.5321C78.6902 27.852 79.0991 28.068 79.5437 28.152L85.7964 29.3344C86.0545 29.3826 86.2876 29.5195 86.4553 29.7215C86.623 29.9234 86.7149 30.1777 86.7149 30.4402C86.7149 30.7028 86.623 30.957 86.4553 31.159C86.2876 31.361 86.0545 31.4979 85.7964 31.5461L79.5437 32.7285C79.0991 32.8125 78.6902 33.0285 78.3703 33.3484C78.0504 33.6683 77.8344 34.0772 77.7504 34.5217L76.568 40.7745C76.5198 41.0326 76.3829 41.2656 76.1809 41.4334C75.979 41.6011 75.7247 41.6929 75.4622 41.6929C75.1996 41.6929 74.9454 41.6011 74.7434 41.4334C74.5414 41.2656 74.4045 41.0326 74.3563 40.7745L73.1739 34.5217C73.0899 34.0772 72.8739 33.6683 72.554 33.3484C72.2341 33.0285 71.8252 32.8125 71.3807 32.7285L65.1279 31.5461C64.8698 31.4979 64.6368 31.361 64.469 31.159C64.3013 30.957 64.2095 30.7028 64.2095 30.4402C64.2095 30.1777 64.3013 29.9234 64.469 29.7215C64.6368 29.5195 64.8698 29.3826 65.1279 29.3344L71.3807 28.152C71.8252 28.068 72.2341 27.852 72.554 27.5321C72.8739 27.2122 73.0899 26.8033 73.1739 26.3587L74.3563 20.106Z" fill="black" stroke="black" stroke-width="2" stroke-linecap="round" stroke-linejoin="round"/>
<g clip-path="url(#clip0_72_256)">
<path d="M94.3069 33.8162C94.3354 33.6633 94.4166 33.5252 94.5363 33.4258C94.656 33.3264 94.8066 33.272 94.9622 33.272C95.1178 33.272 95.2685 33.3264 95.3881 33.4258C95.5078 33.5252 95.589 33.6633 95.6175 33.8162L96.3182 37.5216C96.368 37.785 96.496 38.0273 96.6856 38.2169C96.8751 38.4064 97.1174 38.5345 97.3809 38.5842L101.086 39.2849C101.239 39.3135 101.377 39.3946 101.477 39.5143C101.576 39.634 101.63 39.7847 101.63 39.9402C101.63 40.0958 101.576 40.2465 101.477 40.3662C101.377 40.4858 101.239 40.567 101.086 40.5956L97.3809 41.2962C97.1174 41.346 96.8751 41.474 96.6856 41.6636C96.496 41.8532 96.368 42.0955 96.3182 42.3589L95.6175 46.0642C95.589 46.2172 95.5078 46.3553 95.3881 46.4547C95.2685 46.5541 95.1178 46.6085 94.9622 46.6085C94.8066 46.6085 94.656 46.5541 94.5363 46.4547C94.4166 46.3553 94.3354 46.2172 94.3069 46.0642L93.6062 42.3589C93.5564 42.0955 93.4284 41.8532 93.2389 41.6636C93.0493 41.474 92.807 41.346 92.5435 41.2962L88.8382 40.5956C88.6853 40.567 88.5472 40.4858 88.4478 40.3662C88.3484 40.2465 88.2939 40.0958 88.2939 39.9402C88.2939 39.7847 88.3484 39.634 88.4478 39.5143C88.5472 39.3946 88.6853 39.3135 88.8382 39.2849L92.5435 38.5842C92.807 38.5345 93.0493 38.4064 93.2389 38.2169C93.4284 38.0273 93.5564 37.785 93.6062 37.5216L94.3069 33.8162Z" fill="black" stroke="black" stroke-width="2" stroke-linecap="round" stroke-linejoin="round"/>
</g>
<g clip-path="url(#clip1_72_256)">
<path d="M102.553 17.1127C102.571 17.0171 102.622 16.9308 102.696 16.8687C102.771 16.8066 102.865 16.7726 102.963 16.7726C103.06 16.7726 103.154 16.8066 103.229 16.8687C103.304 16.9308 103.354 17.0171 103.372 17.1127L103.81 19.4286C103.841 19.5932 103.921 19.7447 104.04 19.8631C104.158 19.9816 104.31 20.0616 104.474 20.0927L106.79 20.5306C106.886 20.5485 106.972 20.5992 107.034 20.674C107.096 20.7488 107.13 20.843 107.13 20.9402C107.13 21.0375 107.096 21.1316 107.034 21.2064C106.972 21.2812 106.886 21.332 106.79 21.3498L104.474 21.7877C104.31 21.8188 104.158 21.8988 104.04 22.0173C103.921 22.1358 103.841 22.2873 103.81 22.4519L103.372 24.7677C103.354 24.8633 103.304 24.9496 103.229 25.0118C103.154 25.0739 103.06 25.1079 102.963 25.1079C102.865 25.1079 102.771 25.0739 102.696 25.0118C102.622 24.9496 102.571 24.8633 102.553 24.7677L102.115 22.4519C102.084 22.2873 102.004 22.1358 101.885 22.0173C101.767 21.8988 101.616 21.8188 101.451 21.7877L99.1351 21.3498C99.0395 21.332 98.9532 21.2812 98.8911 21.2064C98.8289 21.1316 98.7949 21.0375 98.7949 20.9402C98.7949 20.843 98.8289 20.7488 98.8911 20.674C98.9532 20.5992 99.0395 20.5485 99.1351 20.5306L101.451 20.0927C101.616 20.0616 101.767 19.9816 101.885 19.8631C102.004 19.7447 102.084 19.5932 102.115 19.4286L102.553 17.1127Z" fill="black" stroke="black" stroke-width="2" stroke-linecap="round" stroke-linejoin="round"/>
</g>
<defs>
<clipPath id="clip0_72_256">
<rect width="16" height="16" fill="white" transform="translate(86.9624 31.9402)"/>
</clipPath>
<clipPath id="clip1_72_256">
<rect width="10" height="10" fill="white" transform="translate(97.9624 15.9402)"/>
</clipPath>
</defs>
</svg>
